<svg id="Layer_1" data-name="Layer 1" xmlns="http://www.w3.org/2000/svg" viewBox="0 0 1500 1500"><defs><style>.cls-1,.cls-2{fill:#fff;}.cls-2,.cls-5{fill-rule:evenodd;}.cls-3{fill:#f76902;}.cls-4{fill:#c5c7c9;}.cls-5{fill:#231f20;}</style></defs><title>RIT-00071A_RGB</title><path class="cls-1" d="M373.28192,129.0877l.01629.06049-.02189.01064h-.29011a1210.03729,1210.03729,0,0,0-215.468,73.81367q-19.32445,8.73771-40.02719,19.07158-10.2591,5.11939-20.00407,10.2003V244.9386l39.27223-19.67868V571.48809l-20.59437,10.29882q-9.23755,4.63481-18.82516,9.65877V604.271q38.80851-18.7952,78.96-34.92676,13.627-5.47231,26.72026-10.39688l2.13834-.80424V371.72739l24.951-8.73967Q260.8328,352.191,291.39,343.178l11.98291-3.53843c3.89467-1.11059.1535.01064,12.14481-3.27633l.0112-.0056,46.84138-12.776V509.86571a124.3371,124.3371,0,0,0,13.25209-2.33543q48.256-10.82952,95.44471-17.85178c1.18172-.18594,2.7263-.40492,4.62993-.67263v-20.6907l-1.08034.1641-42.78323,6.607V363.70963q0-7.51462-1.469-9.72985l-.16354-.15289c-3.16711-2.1663-9.95443-3.69189-20.46612-4.44684-3.66216-.26771-6.46472-.41-8.38459-.43181q-4.1391-.058-9.63968.1585v.0056h-.13666l-.02184-.51413-12.96529-71.70786c11.87654-3.92152,21.68592-7.843,29.30492-11.84126a69.46833,69.46833,0,0,0,15.989-10.944,26.13007,26.13007,0,0,0,6.12874-8.45573,27.65249,27.65249,0,0,0,1.96855-10.86177h-.1445V164.71509h.1445c0-11.923-2.36232-20.97521-7.055-27.02381a23.847,23.847,0,0,0-2.50513-2.71851,28.31971,28.31971,0,0,0-2.37352-2.05653l-.06548.09857-.58246-.57965c-6.67311-4.65463-15.91571-6.76548-27.72953-6.11469q-3.45443.19657-8.73743.99522-5.99652.91065-9.64752,1.772M355.583,57.22134l.02744-.0056h.29011q9.64332-2.32115,16.00807-3.28142,7.31041-1.11555,15.70285-1.56978c28.49228-1.58048,53.05184,4.966,73.46588,18.99485l.07952-.13105.01065.01064.57466.57462a102.53731,102.53731,0,0,1,11.73144,9.49462,98.46975,98.46975,0,0,1,10.039,11.12993c14.91765,19.24078,22.43528,43.43687,22.43528,72.27694h.14169v70.07245h-.14169a100.453,100.453,0,0,1-7.7775,39.58647,98.19735,98.19735,0,0,1-16.42139,26.23638,73.60167,73.60167,0,0,1,7.37481,8.253c11.29185,14.70146,16.96577,33.04044,16.96577,54.84626v25.50326c.85633-.10361,1.655-.20778,2.38192-.28954l41.47661-4.99346V554.36383l-32.775,3.93215h-.02184c-9.21007,1.11619-15.11142,1.84314-17.61935,2.17693-3.035.41052-8.95866,1.27469-17.73137,2.58186q-46.13487,6.87441-89.92872,16.6975a167.098,167.098,0,0,1-33.33508,4.4138c-12.678.21339-23.86561-1.72833-33.61175-5.978l.01345-.04929a57.75265,57.75265,0,0,1-28.56341-25.9793q-8.11773-14.93922-8.10513-34.58737h-.145V421.64572q-4.37269,1.387-8.71,2.80028V610.27644l-24.79479,8.75647-.0112.0056h-.1501q-11.67463,4.09373-25.33412,9.22636-13.00281,4.88172-25.268,9.81721A1169.585,1169.585,0,0,0,78.18853,697.50624L23.38094,727.56v-181.094l19.17236-9.5876-.02965-.05992c.51129-.27891,2.51293-1.36766,5.74278-3.11228,6.08164-3.29252-4.094,2.25371,5.61119-2.94249q4.266-2.28083,8.63046-4.56109V346.89732L23.22745,368.46787V187.73506L42.5645,177.64958l-.03585-.07113q21.59688-11.8377,41.89218-21.96427,20.26371-10.09948,42.63592-20.22585A1285.32811,1285.32811,0,0,1,355.59928,57.29247ZM279.41489,261.5325c1.3727-.41053,2.751-.83169,4.14558-1.24725V250.06311c-1.39454.443-2.77288.89161-4.14558,1.33462Zm-25.51446,86.27267-.01624.005-11.59484-35.1015H205.15826V198.63543l24.951-8.729q29.91539-10.48425,57.87056-18.81451c4.94978-1.47127,8.77832-2.60874,11.47163-3.37994,1.60008-.46485,2.23182-.59086,11.36017-3.12847h.14729l.0056-.0056,46.85259-12.776V316.16482l-27.26968,7.59155q-25.78888,7.18692-54.8625,16.77984c-6.71339,2.20942-10.277,3.39673-10.61586,3.51155-6.50281,2.20381-9.99251,3.40177-10.58841,3.60395Z"/><path d="M369.0787,88.53854c31.74625-7.624,57.22762-4.2553,76.13791,8.94241,18.87164,13.2134,28.39371,34.28158,28.39371,62.58512v70.0725c0,18.33846-6.514,33.59214-19.42106,45.99122-12.897,12.4534-32.76158,22.57753-59.35023,31.35528,28.61549-1.12627,49.00208,2.97558,60.89206,11.09751,11.885,8.13251,17.87923,21.7184,17.87923,40.478v68.08206q21.86821-3.37209,43.85852-6.038v95.70681a1297.77859,1297.77859,0,0,0-129.06709,22.17821c-19.728,4.43-34.38855,4.81312-44.05007.6071-9.65032-4.173-14.455-13.00057-14.455-26.66318V367.38528q-41.89329,11.51-82.96106,25.89138V579.43528A1214.10314,1214.10314,0,0,0,65.002,660.37511V564.66773q19.44793-10.66487,39.275-20.59157V280.55983q-19.81252,9.92727-39.275,20.58653V205.41715C160.715,152.978,263.23152,114.01436,369.0787,88.53854M246.93558,308.06524q38.77574-13.58576,78.405-24.6284V195.61113q-39.61254,10.99334-78.405,24.59541Z"/><path class="cls-1" d="M833.01156,112.11689V90.66619a1278.44889,1278.44889,0,0,0-135.99107-.919q-14.58722.69727-33.1525,2.05093h-.02184v21.374l4.78847-.31139.05209-.0056,39.44417-2.5925V448.09548l-34.80355,2.24806q-4.88929.32764-9.34173.634v21.47814a1355.92052,1355.92052,0,0,1,138.84623-2.42281q16.49841.55782,30.322,1.32342V449.8619q-4.96321-.30327-9.07906-.51414L788.836,447.54831V109.7921L827.8484,111.843c1.75018.08233,3.47851.1809,5.16316.27387m74.25107-55.94565V192.41153L866.9431,188.8619h-.04369c-2.00164-.1697-3.11783-.27337-3.8123-.3338V377.61246c3.99824.29571,7.42186.57462,10.244.81488l33.78929,2.92069V551.5305L867.096,548.10128l-.4262-.03248q-18.96825-1.62473-33.12226-2.47769-18.32727-1.09126-33.03993-1.59168a1281.12914,1281.12914,0,0,0-170.01614,5.56248L589.743,553.61447v-170.155l33.54-3.28193v-.01629l6.31183-.59585c1.3783-.13721.86982-.07112,4.27715-.37747V189.99377c-1.15988.10977-2.28895.21332-3.3805.32259l-40.60628,4.02008V24.26878l33.35692-3.32505.424-.04929q19.67308-1.95319,34.97325-3.07414Q674.075,16.70466,693.547,15.79122a1353.074,1353.074,0,0,1,179.63622,3.39113l34.07939,2.94254Z"/><path d="M866.66979,59.91241V155.636q-22.06061-1.912-44.17552-3.063V416.11629q22.10933,1.124,44.17552,3.04111v95.71241a1317.27531,1317.27531,0,0,0-243.26919,1.60288v-95.718q22.01523-2.19934,44.14023-3.63757v-263.527q-22.09335,1.46091-44.14023,3.64821V61.52593a1317.27088,1317.27088,0,0,1,243.26919-1.61352"/><path class="cls-1" d="M1298.07684,558.84875V542.47384c-4.06929-1.59728-9.2762-3.61572-15.6754-6.05476l-23.93342-9.134V184.30024l50.32829,19.26872q17.21163,6.57945,35.8895,14.38391l7.02254,2.98062c8.20425,3.48411,3.34745,1.36206,6.864,2.88255l1.02266.57972h0l21.462,10.01435v74.12q13.32277,6.07893,26.69555,12.56827V233.65516a1202.16891,1202.16891,0,0,0-297.15272-108.09531q-30.97809-6.86592-64.81078-12.51887-11.96111-2.01032-24.09808-3.77925V204.7882q18.41043,2.56814,36.60077,5.59552V135.01645l44.3777,8.986q13.58583,2.732,26.23077,5.57317,15.89943,3.56868,26.27446,6.10959l28.2873,6.93467V502.4601l-41.76336-10.28772V511.687A1301.67871,1301.67871,0,0,1,1284.584,553.94266q7.1533,2.56808,13.49286,4.90609m74.25108-41.15682V668.557l-51.05077-20.79935h-.01064l-.4374-.29011q-12.61806-5.3404-30.50792-12.31675-18.14748-7.09619-30.68266-11.59488a1228.07463,1228.07463,0,0,0-162.45986-45.9038l-29.44717-6.19142V400.04213l41.46821,8.74527V295.37107l-20.75007-3.99824h-.02178l-.28457-.14226q-2.80588-.56621-14.986-2.88764c-1.54793-.29571-6.54145-1.18676-15.01846-2.69113q-39.12522-6.94824-77.78447-11.35955l-32.91448-3.76862V25.53227l41.18371,4.65966.033.0056h.13665q34.2435,3.90471,69.18146,9.74609,33.20094,5.55463,68.57379,13.3999c117.25608,26.02293,230.79339,67.91236,336.1702,125.67366l19.29049,10.57223V443.99867l-54.67657-29.43541-.0056-.0112-.28451-.1473q-3.47879-1.89522-13.42734-7.18663c-7.73885-4.10745-12.26739-6.49777-13.531-7.15415q-32.4625-16.68659-67.34887-31.86382v108.3904c4.57782,1.87562,10.20022,4.22786,16.82344,7.01694l22.76907,9.62624Z"/><path d="M1337.52661,524.66575v95.69617a1257.35215,1257.35215,0,0,0-230.48144-71.998V452.65153q20.85424,4.397,41.61047,9.49463V198.62423q-25.36718-6.2183-50.91915-11.3977v74.72153q-55.01625-11.15715-110.85185-17.518V74.00672c160.79713,18.33852,318.07249,66.501,460.3177,144.46589V388.9015q-49.33812-27.049-100.9467-49.30059V264.86875q-23.96339-10.34563-48.33225-19.66748V508.73883q19.936,7.60536,39.60322,15.92692"/><path class="cls-2" d="M1161.27874,1367.7026v-12.8964h-3.26009l-3.78423,9.801-3.85045-9.801h-3.28753v12.8964h2.12766v-10.76875h.06048l4.22786,10.76875h1.34526l4.2329-10.76875h.05488v10.76875h2.13326m-16.81288-11.1793v-1.7171h-10.20534v1.7171h4.03633v11.1793h2.122v-11.1793Z"/><path class="cls-1" d="M1131.89765,1148.52085c7.89231,12.09217,11.04262,26.37807,12.41532,36.617,1.43822,10.68138,1.06634,25.89138.4486,38.45959l-.07673,1.674.86417,1.41078c1.11563,1.79386,2.14956,3.58267,2.99686,5.23425a82.37413,82.37413,0,0,1,9.298,34.92119c.55782,21.81753-7.06622,51.26918-29.87337,69.83223-3.25953,2.65243-6.26759,4.966-8.94745,6.924l-1.71769,2.117a217.16785,217.16785,0,0,1-18.01588,32.33987c-15.93751,23.45737-44.23538,54.27164-88.41657,63.96845-12.24,2.68547-77.68589,25.62927-101.346,33.9808l3.21584-19.36673-26.78859,7.08809,1.2142-43.6009-3.66444-1.30157c-2.51577-.881-5.097-1.88179-7.71141-2.99182-19.05534-8.13313-43.01061-23.97767-55.42592-54.00394-3.75182-9.07907-6.514-16.35307-8.77832-22.62121l-.89161-2.49393-42.74793-13.3831c-38.74186-6.32807-75.01668,2.22567-86.95931,13.66761-10.19469,9.77913-15.0375,17.87922-17.25252,22.5008a30.7644,30.7644,0,0,0-1.78321,4.47932,11.27835,11.27835,0,0,0-.25987,2.084l-.13385,1.51495-1.28533,10.44616-3.77926,32.32922c-10.11236-4.94417-28.84786-14.14927-37.06785-18.41519-10.97989-5.70473-24.87712-13.18091-32.854-18.73219a246.96508,246.96508,0,0,1-50.0471-45.79464,259.11586,259.11586,0,0,1-16.44609-22.58817l-4.318-6.63445-4.53421,6.481a53.89943,53.89943,0,0,0-4.31523,7.1211,29.329,29.329,0,0,0-1.78266,4.49053,11.35954,11.35954,0,0,0-.26826,2.07837l-.12825,1.50935-1.28813,10.44112-3.77641,32.34546c-10.113-4.9498-28.848-14.15485-37.06566-18.42639-10.98494-5.69913-24.88552-13.16972-32.854-18.716a247.536,247.536,0,0,1-50.05219-45.80528c-3.54963-4.34267-6.89989-8.77832-10.05244-13.2246l-2.54321-3.58772-4.01224,1.79946a243.91933,243.91933,0,0,1-25.11739,9.5708c-14.10836,4.59469-71.24021,16.21137-93.97624,20.77247l7.82118-20.91473c.18874-.50293,18.03212-48.40282,21.60644-70.84369.48664-3.05175.87252-6.93462,1.16491-11.37586l.32535-4.87864-4.82936-.755c-19.602-3.06294-36.05359-8.75647-46.44823-13.80425-6.70778-3.28193-15.784-10.26079-22.28742-15.51131-4.89488-3.94839-17.06373-14.62474-23.92222-20.6627l12.17169-9.172,9.596-7.269c4.411-3.34129,9.38261-7.13175,10.05248-7.73325a73.768,73.768,0,0,0,7.56407-8.18745,102.61574,102.61574,0,0,0,13.088-21.47814l3.2024-6.9895-7.66829-.55781c-4.8344-.36684-9.61223-.90841-13.58527-1.422-6.57954-.83725-22.45152-3.5608-31.26007-5.11383,6.77667-19.88646,29.12682-86.43173,46.03774-148.07595,22.38035-81.613,79.03952-143.85313,112.52525-172.551,11.73994-10.06313,26.77235-25.45958,40.492-40.24841l3.73838-4.02512-4.12649-3.62076a211.17454,211.17454,0,0,1-26.87876-28.53317c-17.6468-22.47895-43.81765-63.75059-50.40278-90.53917l-1.47626-6.00492,2.13824-13.01178c5.37094-25.16387,23.46634-39.89837,45.01505-43.92349a118.00436,118.00436,0,0,1,23.57835-1.50991c6.74648.126,14.60569.5796,23.67355,1.06685,32.77228,1.76087,94.925,2.313,137.21367-2.72406,42.58665-5.07523,115.851-23.2664,115.851-23.2664a689.3302,689.3302,0,0,1,85.73894-14.7177l4.18132-.42677,2.11141-.21338a414.876,414.876,0,0,1,55.53233-1.36714c20.73439.89726,45.3186,7.44935,62.6456,12.75476,9.88275,3.0299,18.49137,6.00492,24.32155,8.09448l1.77761.31139c12.43156.06548,32.03351,2.98118,56.91343,15.336,8.71839,4.4026,27.58163,15.85574,43.40993,25.804l1.641,1.03392,1.93051-.26827c5.12451-.70511,10.50665-1.3727,15.69165-1.88123,8.84888-.86976,21.89874-1.85938,31.89685.12041,21.63608,4.28219,32.01727,20.25834,35.48458,33.61959a59.36609,59.36609,0,0,1,1.70649,11.29409l.15289,3.00806,2.658,1.422c12.97313,6.88588,36.57892,21.4675,45.65239,46.84475A151.231,151.231,0,0,1,1127.369,653.347l.57966,2.90444,2.77843,1.04451c10.16166,3.8397,21.38517,8.16,33.078,12.82528,28.22744,11.2616,49.53021,22.18381,64.69092,38.58056a92.199,92.199,0,0,1,10.76371,14.23662,184.3109,184.3109,0,0,1,9.5876,16.07976c8.93121,16.92209,18.83076,41.92746,19.60755,71.34719.7656,29.10162-7.80991,56.87478-15.37969,75.859-2.57066,6.481-6.35551,14.52113-10.28206,22.34735l-.50349,1.60232a410.63181,410.63181,0,0,1-8.55934,42.52952c-5.628,21.68592-15.11142,43.11421-25.78777,59.2707-5.25612,7.94159-11.73148,16.05792-19.35048,22.167-6.37169,5.12507-20.87048,14.60849-38.9194,9.4509-15.62052-4.47929-24.32714-15.691-28.61549-25.21871a68.027,68.027,0,0,1-5.25052-21.52743c-.55775-5.79713-.56846-12.74351-.71071-20.13792l-.3338-17.95539-9.53264,15.22623c-15.27615,24.38763-33.8224,60.79126-31.98479,88.63555,1.2035,18.51377,5.885,39.42793,11.56229,58.94252l1.14867,3.92711,4.09072-.08233c19.50331-.41,33.81666,10.79675,41.85122,23.1191"/><path class="cls-3" d="M1089.71817,1291.85985a25.23977,25.23977,0,0,1-4.80186,9.97627c-6.90219,8.09449-23.95533,13.03866-23.95533,13.03866s-.24082-.02184-3.53339,7.70077a139.68844,139.68844,0,0,1-16.44044,28.7135c-7.17593,9.57135-17.12986,16.59389-25.65111,21.2866l-2.51571,1.33461a55.819,55.819,0,0,0-.66765-6.19144c-1.14867-5.65486-5.98307-13.531-5.98307-13.531s-4.43061,8.83827-8.52119,13.564c-3.87229,4.45188-10.53975,9.17763-11.46945,9.88834-.23522-.71071.65639-1.95795-.56341-7.58038-1.05-4.85677-5.03154-11.21173-5.03154-11.21173s-24.508,20.32384-25.47582,20.78309a30.46915,30.46915,0,0,0-2.26425-4.68148,17.68229,17.68229,0,0,0-10.23844-7.7775,32.65662,32.65662,0,0,0-4.94467-1.13747c-1.41084-.23018-2.96443-.41615-4.62668-.6239a92.10862,92.10862,0,0,1-9.49463-1.47631,52.4766,52.4766,0,0,1-10.906-3.62076c-14.54857-6.62882-22.68674-19.68988-49.91273-81.56933-27.86054-63.35631-67.8082-77.00767-70.01258-77.6859l-23.61643-7.55851s18.0982,33.72376,31.10382,56.77118c-66.57495-17.7969-184.5283-53.21594-240.73886-93.86367-53.41868-38.63545-85.40347-106.49293-85.40347-106.49293s-11.34337,40.39626,12.94625,89.75678c13.72193,27.88238,36.05583,49.93457,49.80856,61.82512-14.94229,1.67345-30.35446,4.64846-44.76078,9.74609-26.58076,9.38541-39.5209,21.57055-44.8291,27.19351a48.70738,48.70738,0,0,1-3.94056-3.632c-4.6955-4.79128-11.33217-13.01682-18.63081-26.6245a163.55967,163.55967,0,0,1-14.10557-36.88471A195.82928,195.82928,0,0,1,406.71,1148.723l-40.42595,20.8324c.536-4.747,1.3615-10.98214,2.64683-18.42024a350.36373,350.36373,0,0,1,18.57089-67.0594c20.39219-52.18768,32.9828-103.91107,32.9828-103.91107L320.145,1080.52112c1.91427-8.14377,3.73-17.2178,5.52663-26.95829,4.2441-23.04741,8.53189-50.24652,13.85074-77.34146,8.081-41.23859,29.51774-70.8437,49.01888-90.17234,9.74329-9.66433,35.86485-36.44171,35.86485-36.44171a281.83894,281.83894,0,0,0-27.89077,6.34991c-15.27273,4.28779-35.17319,11.15183-53.5251,21.407-2.52417,1.41078-4.94977,2.95878-7.32105,4.59414,1.31278-3.61012,2.877-7.6078,4.7258-11.885,7.605-17.50174,19.91106-39.22014,38.82358-56.73309,37.37981-34.58792,113.48243-109.08486,121.52539-116.96093a320.09563,320.09563,0,0,1,52.72645-19.34488c28.83671-7.53108,71.741-9.94324,71.741-9.94324l-6.66976-8.84888c-1.012-1.34021-28.18088-36.13032-110.00392-38.02835-60.91166-1.41078-90.53917-14.96917-104.85756-27.11118-4.38916-3.72437-20.34851-13.75553-32.55324-21.25915,10.18125.70567,24.60661,2.30239,41.09353,3.604,21.60359,1.69584,46.544,2.8826,69.90056,1.00138,54.94708-4.425,96.89918-11.32153,126.786-17.70449A118.32127,118.32127,0,0,0,601.149,570.881c-13.95771,25.011-18.01868,39.86589-18.01868,39.86589s17.30237-29.46341,65.43468-53.92726c12.40692-6.295,23.2636-11.35956,32.59973-15.41833l23.8679-4.38631c-.81488,1.2142-1.70089,2.51073-2.67147,3.89967a100.18769,100.18769,0,0,0-11.76173,23.272s21.705-12.902,57.7804-24.96168c17.32084-5.7921,38.72225-7.7831,56.30072-8.29163l21.24292,2.08952c-2.13319.54106-4.37572,1.11568-6.826,1.77207-26.05548,6.962-33.8929,19.7386-33.8929,19.7386s48.61066-6.10913,74.16875-4.35891c25.547,1.74452,45.789,26.39991,56.72749,39.3568,15.8171,18.75963,47.55042,25.92442,47.55042,25.92442s-9.76849-10.71443-24.07064-27.5105a69.30971,69.30971,0,0,1-8.58677-12.49764c18.23989,11.17927,38.48759,23.61134,46.25388,28.49,8.33531,5.22308,18.66106,9.58755,29.63816,13.81546,10.9222,4.20042,22.98749,8.43332,35.35352,13.41054,12.08152,4.8624,17.14611,8.51,19.859,11.61107a20.95718,20.95718,0,0,1,3.18279,5.11947c.60206,1.31277,1.17052,2.70171,1.75018,4.14045a44.65885,44.65885,0,0,1-4.49557.65587,44.693,44.693,0,0,0-14.767,4.55605c-1.11-1.60232-2.25311-3.28136-3.506-4.94977a58.102,58.102,0,0,0-4.47933-5.40906,28.15018,28.15018,0,0,0-12.63934-8.19861,35.55267,35.55267,0,0,0-13.42733-.84233,52.508,52.508,0,0,0-7.7551,1.60288s29.9165,38.40527,39.85974,43.68323a132.67539,132.67539,0,0,0,18.22365,7.4493c7.63524,2.658,17.31581,5.75906,29.81905,9.86091,49.89089,16.39675,65.18265,22.59937,79.85724,31.39948,6.10908,3.66953,11.24984,7.43815,15.36849,12.27815a78.76652,78.76652,0,0,1-11.55675,1.84314c-12.79777.99018-39.45537-10.72507-59.10661-9.72985-17.21724.85353-37.76568,2.13881-47.89989,20.42244-.31749.57461-.57462,1.14867-.83673,1.71769-.0112-.02745-.033-.08793-.033-.08793s-.18034.438-.41556,1.15427a24.45424,24.45424,0,0,0-1.57544,6.18582c-1.18109,6.69435-1.29037,16.54461,5.97244,23.24456,29.7804,27.44493,52.177,27.21479,64.84942,35.93317,6.6781,4.59414,7.72821,12.31115,7.24712,18.60674-7.14849-.345-14.93109-.44357-23.45234-.21338-20.77247.536-50.06619,5.48574-79.66569,11.0695-29.34855,5.52943-58.9811,11.67716-80.75949,14.65218-43.49225,5.92875-103.49551-1.55864-145.11157,15.92127-21.81138,9.16139-46.46727,30.91788-62.41542,72.61571-18.48912,48.3709-13.61882,84.61043-.84233,112.32871,6.36061,13.79361,14.62474,25.361,22.74107,35.195,8.03456,9.72428,16.00863,17.81877,21.97043,24.74274,23.65451,27.51607,57.37267,75.96317,90.64223,124.0602,34.28157,49.60638,108.43464,61.38715,159.496,51.27983A177.22741,177.22741,0,0,0,1089.71817,1291.85985Z"/><path class="cls-1" d="M888.84184,1253.78278c-33.26956-48.097-66.98772-96.54413-90.64223-124.0602-5.9618-6.924-13.93587-15.01846-21.97043-24.74274-8.11633-9.834-16.38046-21.40138-22.74107-35.195-12.77649-27.71828-17.64679-63.95781.84233-112.32871,15.94815-41.69783,40.604-63.45432,62.41542-72.61571,41.61606-17.47991,101.61932-9.99252,145.11157-15.92127,21.77839-2.975,51.41094-9.12275,80.75949-14.65218,15.2375-2.87645,30.3763-5.57312,44.32841-7.591l-.01624-.0112c1.92491-.27891,3.77366-.51413,5.65488-.77119,1.15428-.14786,2.341-.3226,3.47347-.47045,2.17638-.27331,4.266-.50293,6.36062-.73255.99515-.10417,2.03462-.24083,3.008-.3394,2.20438-.224,4.30963-.39372,6.40984-.55781.76616-.05993,1.59728-.14786,2.36288-.20778,2.80588-.19154,5.50759-.3226,8.08384-.38812,3.87783-.10977,7.56916-.126,11.14623-.10417,1.17052.0112,2.28615.04364,3.413.06552,2.308.04369,4.5723.10417,6.75988.19154.70007.0274,1.46062.0274,2.13325.06049.48109-6.29559-.569-14.0126-7.24712-18.60674-12.67239-8.71838-35.069-8.48824-64.84942-35.93317-7.26281-6.69995-7.15353-16.55021-5.97244-23.24456a24.27528,24.27528,0,0,1,1.422-5.69353,84.96349,84.96349,0,0,1-8.77775-10.26078c-13.31813-18.71594-15.73533-22.28686-15.73533-22.28686s.18594,21.53247,8.71783,40.29769c8.54309,18.75959,26.39487,42.22261,26.39487,42.22261s-34.06259-30.48052-48.983-47.4132c3.47851,2.13829,5.56807,3.56083,5.56807,3.56083s-21.24291-35.35352-56.77173-43.45921a56.56454,56.56454,0,0,0-14.75573-1.6684c-.09863,0-2.57066.08233-2.92075.10417-42.67681,1.46-63.26334,28.37466-89.03991,40.161a529.97359,529.97359,0,0,1-52.63685,20.13792,93.43206,93.43206,0,0,1-26.91958,2.23127c-22.75232-1.5424-23.63833-3.27073-23.63833-3.27073s20.79431-9.88274,29.5015-23.00933a52.84542,52.84542,0,0,0,8.52069-27.10558c.19714-.27891.31761-.44865.31761-.44865s-27.6965,5.83018-43.098,1.30161c-15.39873-4.51741-68.62083-42.82975-110.64966-42.46343-59.8638.51974-75.71394,50.61281-75.71394,50.61281s.41836-.61271,1.2114-1.61857l-.67543,1.19236s21.65008-15.53314,40.78719-16.57765c19.1315-1.03386,38.43556,3.15032,38.43556,3.15032s-56.37471,24.33274-88.26373,74.3278c-31.88285,50.0057-36.80793,109.375-36.80793,109.375s47.72734-44.05006,83.40625-58.40657c18.38776-7.40558,31.17775-13.09351,39.28064-16.87836a214.70505,214.70505,0,0,0-36.90152,53.12857c-40.47243,82.76164-40.5766,128.62129-40.5766,128.62129s8.71839-14.75579,20.78367-26.36743c12.07312-11.61107,15.55168-14.65218,15.55168-14.65218s.09012-.85856.25141-2.341a181.60515,181.60515,0,0,1,20.47172-16.01367c16.49029-10.93341,25.10674-15.965,29.57263-18.30039a273.53021,273.53021,0,0,0-6.388,30.27774c-10.184,67.29966,1.22205,155.50341,48.70413,183.06319,43.84453,25.43214,77.58733,21.19868,82.52591,20.4.64518.0224,1.25788.05488,1.88122.08792,26.67938,32.12649,38.77771,52.363,43.9515,62.45911,9.21012,11.05886,18.67226,25.58556,27.05126,44.64036,27.226,61.87945,35.36416,74.94051,49.91273,81.56933a52.4766,52.4766,0,0,0,10.906,3.62076,92.10862,92.10862,0,0,0,9.49463,1.47631c1.66225.20775,3.21584.39372,4.62668.6239a32.65662,32.65662,0,0,1,4.94467,1.13747,17.68229,17.68229,0,0,1,10.23844,7.7775,30.46915,30.46915,0,0,1,2.26425,4.68148c.96778-.45925,25.47582-20.78309,25.47582-20.78309s3.9815,6.355,5.03154,11.21173c1.2198,5.62243.32819,6.86967.56341,7.58038.9297-.71071,7.59716-5.43646,11.46945-9.88834,4.09058-4.72575,8.52119-13.564,8.52119-13.564s4.8344,7.87609,5.98307,13.531a55.819,55.819,0,0,1,.66765,6.19144l2.51571-1.33461c8.52125-4.69271,18.47518-11.71525,25.65111-21.2866a139.68844,139.68844,0,0,0,16.44044-28.7135c3.29257-7.72261,3.53339-7.70077,3.53339-7.70077s17.05314-4.94417,23.95533-13.03866a25.29583,25.29583,0,0,0,4.80746-9.98691,176.71984,176.71984,0,0,1-41.38588,13.2134C997.27648,1315.16993,923.12341,1303.38916,888.84184,1253.78278Z"/><path d="M1241.10853,810.43645c-.6127-23.46353-8.58678-44.05566-16.30939-58.6748a149.38607,149.38607,0,0,0-8.56493-14.26406c-1.91427-3.15032-7.42746-9.87775-7.42746-9.87775-10.35879-11.21731-26.27446-20.209-54.27165-31.38772-20.647-8.23674-39.71243-15.35785-54.228-20.64706.52477-4.61594.77624-16.479-6.15893-35.88945-4.9985-14.02884-19.43226-24.14681-31.83077-30.71514a162.32621,162.32621,0,0,0-22.65426-9.7629,71.00705,71.00705,0,0,0,3.32-11.89558c.71631-5.48575,2.44465-22.21125-12.56317-25.17563-10.0194-1.98484-35.21127,1.48807-50.88611,4.01448-16.17833-10.38567-41.98794-26.44359-52.53827-31.76025-27.52114-13.67316-45.06657-12.557-49.42044-11.97171-3.17216-1.20916-14.99662-5.61175-29.80729-10.146-17.27212-5.2886-38.9418-10.86732-55.69979-11.58923a387.4881,387.4881,0,0,0-51.88973,1.26909l-6.15.62894C698.97564,506.29984,651.316,516.779,651.316,516.779s-76.2964,18.88-120.73459,24.1742c-44.39954,5.28866-109.65388,4.77453-144.06931,2.92578-8.75367-.47045-16.35363-.91849-22.87268-1.0389a90.25315,90.25315,0,0,0-17.6524,1.01146c-11.20615,2.09517-19.37737,9.50583-22.21069,21.42325a16.17187,16.17187,0,0,0,.13385,4.81312c5.0293,20.40619,27.96191,57.84312,45.3382,79.96645,21.2698,27.11174,42.54244,40.0025,53.73567,45.40092-4.81592,5.54567-12.54917,14.31839-21.60919,24.24533-15.448,16.89469-34.53864,36.87916-49.66122,49.84165-31.34469,26.85972-83.80344,84.93246-104.21747,159.37-20.72318,75.547-35.38376,117.81389-35.38376,117.81389s26.96668,4.37516,55.08708-12.40971c-3.69188,16.61013-7.255,31.749-9.93259,41.145-13.24079,46.35246-40.72669,65.74663-40.72669,65.74663s15.303,12.92385,48.49579,18.12c14.94229,2.32983,25.706,1.62976,33.1441.098-.18874,20.42243-.86137,41.326-2.63338,52.429a272.733,272.733,0,0,1-12.123,47.36392s21.11466-4.12366,37.708-9.5058c16.36707-5.31605,36.38458-13.5091,48.87943-24.85247a258.44223,258.44223,0,0,0,26.49343,40.07927,219.49709,219.49709,0,0,0,44.39115,40.5822,238.25921,238.25921,0,0,0,27.7894,16.2545s.9353-6.8366,1.51776-8.89315a61.74877,61.74877,0,0,1,3.62356-9.31933c3.8123-7.96341,10.88412-19.17572,23.8791-31.63473,6.00771-5.74281,13.95491-10.44616,23.0883-14.17613,7.698,16.13409,19.17014,36.89592,34.33926,55.44777a219.49043,219.49043,0,0,0,44.3889,40.571,242.29983,242.29983,0,0,0,27.79221,16.2657s.92694-6.8478,1.52-8.90377a60.53517,60.53517,0,0,1,3.62076-9.31989c3.8095-7.95223,10.88132-19.17519,23.8819-31.63419,23.02557-22.08524,73.7123-29.217,116.84052-21.41821,21.943,6.88084,42.80282,13.42171,59.46784,18.63977,3.418,9.86651,6.80356,20.45489,14.16549,38.29606,16.8835,40.79,65.69174,45.537,70.581,46.22644l-.79864,28.47268,33.34068-8.8164-2.50457,15.04086s41.12882-14.49368,57.20865-18.0271c33.70185-7.38319,56.55269-31.25165,70.64145-51.99107a185.7798,185.7798,0,0,0,19.31744-36.91779,177.85339,177.85339,0,0,0,15.70789-11.4744c13.45478-10.97149,19.323-30.19036,18.91308-46.08419a52.49428,52.49428,0,0,0-6.03845-22.15076,70.46885,70.46885,0,0,0-5.35974-8.44452c-.52484-.71127-1.48757-1.958-2.57065-3.33626.06042-.6127.14219-1.18171.18587-1.8157.97394-15.22679,1.71769-33.57086.37188-43.6121-2.31863-17.23964-9.52711-36.54588-27.28088-33.52718-8.16,1.3783-12.90705,10.24958-16.29258,19.84278-10.32071-26.76675-25.95187-72.85654-28.53373-112.31751-3.15031-48.38158,35.24431-106.71139,49.202-126.18729a29.30276,29.30276,0,0,0,2.97509.11985,37.70477,37.70477,0,0,0,18.58482-5.70977,37.14525,37.14525,0,0,0,11.59484,3.51659,25.31736,25.31736,0,0,0,15.67484-3.23208l.46485,1.40014a117.45889,117.45889,0,0,1,4.6983,29.25c.50853,10.76315.1641,21.2754.9297,29.44662.70007,7.39438,2.57065,17.95538,12.19689,20.7013,13.73873,3.93779,37.11434-32.30734,46.92652-70.14919a386.52737,386.52737,0,0,0,8.80519-45.50453c4.4306-8.60358,9.05722-18.082,11.96727-25.39405C1234.72053,857.47218,1241.71563,833.86135,1241.10853,810.43645Zm-44.5474,27.86558c1.50935-2.50457,2.91509-4.82936,3.99768-7.08247a62.006,62.006,0,0,0,3.16151-8.0564,52.11644,52.11644,0,0,1,5.31045-3.22144c2.01284-1.12123,4.1517-2.35167,6.26255-3.67509-.48109,17.76941-4.26035,31.62355-8.379,41.55a86.2771,86.2771,0,0,0-20.28018-8.35155A48.45506,48.45506,0,0,0,1196.56113,838.302Zm-106.843,453.55782a25.23977,25.23977,0,0,1-4.80186,9.97627c-6.90219,8.09449-23.95533,13.03866-23.95533,13.03866s-.24082-.02184-3.53339,7.70077a139.68844,139.68844,0,0,1-16.44044,28.7135c-7.17593,9.57135-17.12986,16.59389-25.65111,21.2866l-2.51571,1.33461a55.819,55.819,0,0,0-.66765-6.19144c-1.14867-5.65486-5.98307-13.531-5.98307-13.531s-4.43061,8.83827-8.52119,13.564c-3.87229,4.45188-10.53975,9.17763-11.46945,9.88834-.23522-.71071.65639-1.95795-.56341-7.58038-1.05-4.85677-5.03154-11.21173-5.03154-11.21173s-24.508,20.32384-25.47582,20.78309a30.46915,30.46915,0,0,0-2.26425-4.68148,17.68229,17.68229,0,0,0-10.23844-7.7775,32.65662,32.65662,0,0,0-4.94467-1.13747c-1.41084-.23018-2.96443-.41615-4.62668-.6239a92.10862,92.10862,0,0,1-9.49463-1.47631,52.4766,52.4766,0,0,1-10.906-3.62076c-14.54857-6.62882-22.68674-19.68988-49.91273-81.56933-27.86054-63.35631-67.8082-77.00767-70.01258-77.6859l-23.61643-7.55851s18.0982,33.72376,31.10382,56.77118c-66.57495-17.7969-184.5283-53.21594-240.73886-93.86367-53.41868-38.63545-85.40347-106.49293-85.40347-106.49293s-11.34337,40.39626,12.94625,89.75678c13.72193,27.88238,36.05583,49.93457,49.80856,61.82512-14.94229,1.67345-30.35446,4.64846-44.76078,9.74609-26.58076,9.38541-39.5209,21.57055-44.8291,27.19351a48.70738,48.70738,0,0,1-3.94056-3.632c-4.6955-4.79128-11.33217-13.01682-18.63081-26.6245a163.55967,163.55967,0,0,1-14.10557-36.88471A195.82928,195.82928,0,0,1,406.71,1148.723l-40.42595,20.8324c.536-4.747,1.3615-10.98214,2.64683-18.42024a350.36373,350.36373,0,0,1,18.57089-67.0594c20.39219-52.18768,32.9828-103.91107,32.9828-103.91107L320.145,1080.52112c1.91427-8.14377,3.73-17.2178,5.52663-26.95829,4.2441-23.04741,8.53189-50.24652,13.85074-77.34146,8.081-41.23859,29.51774-70.8437,49.01888-90.17234,9.74329-9.66433,35.86485-36.44171,35.86485-36.44171a281.83894,281.83894,0,0,0-27.89077,6.34991c-15.27273,4.28779-35.17319,11.15183-53.5251,21.407-2.52417,1.41078-4.94977,2.95878-7.32105,4.59414,1.31278-3.61012,2.877-7.6078,4.7258-11.885,7.605-17.50174,19.91106-39.22014,38.82358-56.73309,37.37981-34.58792,113.48243-109.08486,121.52539-116.96093a320.09563,320.09563,0,0,1,52.72645-19.34488c28.83671-7.53108,71.741-9.94324,71.741-9.94324l-6.66976-8.84888c-1.012-1.34021-28.18088-36.13032-110.00392-38.02835-60.91166-1.41078-90.53917-14.96917-104.85756-27.11118-4.38916-3.72437-20.34851-13.75553-32.55324-21.25915,10.18125.70567,24.60661,2.30239,41.09353,3.604,21.60359,1.69584,46.544,2.8826,69.90056,1.00138,54.94708-4.425,96.89918-11.32153,126.786-17.70449A118.32127,118.32127,0,0,0,601.149,570.881c-13.95771,25.011-18.01868,39.86589-18.01868,39.86589s17.30237-29.46341,65.43468-53.92726c12.40692-6.295,23.2636-11.35956,32.59973-15.41833l23.8679-4.38631c-.81488,1.2142-1.70089,2.51073-2.67147,3.89967a100.18769,100.18769,0,0,0-11.76173,23.272s21.705-12.902,57.7804-24.96168c17.32084-5.7921,38.72225-7.7831,56.30072-8.29163l21.24292,2.08952c-2.13319.54106-4.37572,1.11568-6.826,1.77207-26.05548,6.962-33.8929,19.7386-33.8929,19.7386s48.61066-6.10913,74.16875-4.35891c25.547,1.74452,45.789,26.39991,56.72749,39.3568,15.8171,18.75963,47.55042,25.92442,47.55042,25.92442s-9.76849-10.71443-24.07064-27.5105a69.30971,69.30971,0,0,1-8.58677-12.49764c18.23989,11.17927,38.48759,23.61134,46.25388,28.49,8.33531,5.22308,18.66106,9.58755,29.63816,13.81546,10.9222,4.20042,22.98749,8.43332,35.35352,13.41054,12.08152,4.8624,17.14611,8.51,19.859,11.61107a20.95718,20.95718,0,0,1,3.18279,5.11947c.60206,1.31277,1.17052,2.70171,1.75018,4.14045a44.65885,44.65885,0,0,1-4.49557.65587,44.693,44.693,0,0,0-14.767,4.55605c-1.11-1.60232-2.25311-3.28136-3.506-4.94977a58.102,58.102,0,0,0-4.47933-5.40906,28.15018,28.15018,0,0,0-12.63934-8.19861,35.55267,35.55267,0,0,0-13.42733-.84233,52.508,52.508,0,0,0-7.7551,1.60288s29.9165,38.40527,39.85974,43.68323a132.67539,132.67539,0,0,0,18.22365,7.4493c7.63524,2.658,17.31581,5.75906,29.81905,9.86091,49.89089,16.39675,65.18265,22.59937,79.85724,31.39948,6.10908,3.66953,11.24984,7.43815,15.36849,12.27815a78.76652,78.76652,0,0,1-11.55675,1.84314c-12.79777.99018-39.45537-10.72507-59.10661-9.72985-17.21724.85353-37.76568,2.13881-47.89989,20.42244-.31749.57461-.57462,1.14867-.83673,1.71769-.0112-.02745-.033-.08793-.033-.08793s-.18034.438-.41556,1.15427a24.45424,24.45424,0,0,0-1.57544,6.18582c-1.18109,6.69435-1.29037,16.54461,5.97244,23.24456,29.7804,27.44493,52.177,27.21479,64.84942,35.93317,6.6781,4.59414,7.72821,12.31115,7.24712,18.60674-7.14849-.345-14.93109-.44357-23.45234-.21338-20.77247.536-50.06619,5.48574-79.66569,11.0695-29.34855,5.52943-58.9811,11.67716-80.75949,14.65218-43.49225,5.92875-103.49551-1.55864-145.11157,15.92127-21.81138,9.16139-46.46727,30.91788-62.41542,72.61571-18.48912,48.3709-13.61882,84.61043-.84233,112.32871,6.36061,13.79361,14.62474,25.361,22.74107,35.195,8.03456,9.72428,16.00863,17.81877,21.97043,24.74274,23.65451,27.51607,57.37267,75.96317,90.64223,124.0602,34.28157,49.60638,108.43464,61.38715,159.496,51.27983A177.22741,177.22741,0,0,0,1089.71817,1291.85985Zm-40.095-84.43513,2.55386,9.17763c-.45365.03305-.8641.02185-1.34526.07673a27.9118,27.9118,0,0,0-9.49462,3.1828,34.38653,34.38653,0,0,0-10.70939-1.45447,47.38831,47.38831,0,0,0-12.46964,1.9798c-1.02266.30635-1.94171.6015-2.73475.87481a38.02091,38.02091,0,0,0-13.04986-3.06239c-3.3637-.1753-2.89885-.16409-5.45271.54662-.6127-4.37516-4.15113-12.22938-6.09844-20.2253-5.96684-24.66653-13.67321-46.8061-23.7038-46.34685-7.1648.33939-12.64488,7.64588-16.67063,13.59647-4.62151,6.8366-10.09612,16.55021-16.84535,28.24361a65.79714,65.79714,0,0,1-14.4276,17.294c-1.06691-1.8051-2.12205-3.68629-3.15591-5.74282-12.53573-25.19131-10.0362-63.65146-32.14329-90.976-17.10242-21.1337-59.35807-22.12332-77.58727-21.49438q-6.94086-8.54869-12.53018-16.59393c14.46624-8.762,47.91669-27.02938,76.85981-27.78937,38.11018-.99578,58.95932,7.12111,74.88562,26.04483a244.91768,244.91768,0,0,1,27.48866,40.98657s-1.85378-27.77821-19.17519-51.74468c-1.739-2.401-3.74117-4.81312-5.852-7.21968a34.18169,34.18169,0,0,1,21.374-2.20945c14.94228,3.40741,36.80854,19.85905,48.81894,59.77927,12.0216,39.91517,8.68534,61.092,20.80495,78.23307C1043.667,1199.24283,1047.12375,1204.02294,1049.62321,1207.42472Z"/><path class="cls-1" d="M1039.78359,646.8878a58.102,58.102,0,0,1,4.47933,5.40906c1.25284,1.66841,2.396,3.34745,3.506,4.94977a44.693,44.693,0,0,1,14.767-4.55605,44.65885,44.65885,0,0,0,4.49557-.65587c-.57966-1.43874-1.14812-2.82768-1.75018-4.14045a20.95718,20.95718,0,0,0-3.18279-5.11947,29.79951,29.79951,0,0,0-7.79934-5.93939l-15.63116,8.96425C1039.02864,646.16593,1039.428,646.51036,1039.78359,646.8878Z"/><path class="cls-2" d="M1206.65166,751.24192l.39372.76055s-12.63374,14.37323-22.85028,15.17135c-12.88016,1.00642-37.84745-8.6579-53.52285-9.62007-15.66924-.96274-42.81347,3.75741-42.15708,18.5132a11.767,11.767,0,0,1-4.999-8.789c-.64524-14.75074,26.49338-19.48154,42.15758-18.5188,15.68044.96218,40.64773,10.6265,53.52236,9.62008,12.19627-.94594,26.29063-5.83578,27.73445-6.34431l-.2789-.793Z"/><path class="cls-1" d="M1206.6735,774.03283c1.87058,14.7065-4.304,18.85764-9.615,21.188-8.62486,3.76805-10.0194,7.91359-10.64274,17.392-.49229,7.34569-18.22422,30.322-18.22422,30.322s10.32631-27.37945,10.75308-33.72936c.62894-9.47282,2.36231-12.96757,10.65394-17.39761,14.86556-7.9472,14.99661-16.26006,17.075-17.775Z"/><path class="cls-1" d="M704.47763,632.42155c-.33659-.37183-.50567-.59585-.50567-.59585s16.77977,4.523,51.81854-4.13489c35.03093-8.6579,72.02542-18.94557,72.02542-18.94557l34.5,22.58817c.49228.317,1.00082.6289,1.48246.96218l54.84067,35.88949s9.489,3.99264,15.66364,3.08479c15.205-2.23126,20.0724-17.6272,21.06257-21.52686-2.53251,2.58129-17.4911,16.8616-29.45221,8.53189-37.42629-26.04484-89.25329-69.6239-89.25329-69.6239-44.13178,1.92491-94.92554,28.648-115.2522,26.22517-20.32107-2.4228-53.73007-13.71693-53.73007-13.71693S677.01362,620.38376,704.47763,632.42155Z"/><path class="cls-1" d="M825.78684,700.93547c17.135-2.39536,29.56142-9.46723,34.56552-16.24951a169.63413,169.63413,0,0,1-21.64168-15.07329c-.68937,1.50991-1.41134,2.99741-2.18813,4.4194-6.96766,12.552-11.87879,16.39115-11.87879,16.39115s.7763-16.0848-.96273-26.13724c-.13156-.755-.29571-1.5374-.47045-2.34664-19.53643,1.898-29.35924,3.21584-33.81113,3.90527a19.65354,19.65354,0,0,0-3.57147,12.83648c.91345,9.43974,9.4347,17.04194,21.7184,21.02393A48.22088,48.22088,0,0,0,825.78684,700.93547Z"/><path class="cls-1" d="M1185.81366,882.26977c-15.18815-4.03632-35.85645-8.14377-57.89241-8.51-22.00284-.37188-50.7825,4.5779-79.53968,10.32575-28.82327,5.76465-57.2634,12.22938-78.16755,14.70707-25.43213,3.01926-70.42253,4.15113-101.80526,4.58349,5.70473,9.08463,14.67962,17.48546,28.42961,17.16235,9.67491-.22962,14.90919-8.07264,14.90919-8.07264,18.0814,23.00429,26.82667,4.00384,36.38738,7.19783a248.45317,248.45317,0,0,1,6.88533,24.45876c5.45326,25.97367,4.91169,45.69607,4.39756,67.90677,10.84044-10.69819,22.83963-27.82246,32.07215-48.56188,9.30309-20.91476,14.63538-56.83726,14.63538-56.83726s14.48864,10.49036,24.51364,8.86568c8.08889-1.31221,17.75321-11.2062,17.75321-11.2062s8.57614,8.92,15.76284,9.86094c8.21483,1.072,19.83157-7.60219,19.83157-7.60219s10.64324,8.13817,18.47506,7.936c7.25216-.18594,16.95513-7.66829,16.95513-7.66829s7.26287,7.586,14.48248,7.13231c10.09612-.63454,19.70612-8.76207,19.70612-8.76207l5.71537,8.822c1.05011,1.78882,9.45094,16.75239,10.87292,46.94836.3282,7.35073.3282,14.4612.51918,20.85984,6.36111-9.5764,14.04-24.43132,19.3124-44.777a377.97783,377.97783,0,0,0,9.40726-50.70018C1195.40686,885.01012,1190.74719,883.58254,1185.81366,882.26977Z"/><path class="cls-1" d="M937.23458,1257.50211c41.43517,23.84605,79.5016,25.55254,111.02658,17.93914a181.26485,181.26485,0,0,0,43.43183-16.61573c.53031-.28451,1.0226-.57966,1.52553-.87537.438-5.25052.92465-11.67156,1.324-18.42023.89665-14.74515,1.30157-29.62191.30579-37.07122-1.17-8.75087-3.14471-14.04507-4.92233-16.73614a79.086,79.086,0,0,0-5.11331,13.8373,208.73144,208.73144,0,0,1-9.615,24.50244c-3.33121,7.34009-12.27866,25.07145-12.27866,25.07145s-3.003-3.57707-5.61736-4.73639a12.98356,12.98356,0,0,0-16.539,4.88985c-3.48411-3.61015-6.49721-5.0209-11.89558-4.94473-8.60862.10977-13.3943,7.34009-13.3943,7.34009s-4.2385-7.39445-16.36427-7.21968c-9.91019.12041-21.09506,11.23416-21.09506,11.23416a398.01,398.01,0,0,0-4.20042-44.85935c-2.67426-18.45328-6.74917-24.437-8.73967-30.29958-.54717.71071-1.12683,1.56424-1.772,2.51577-4.45244,6.55209-9.68112,15.89382-16.17273,27.12742a83.04385,83.04385,0,0,1-30.1198,30.36564A81.741,81.741,0,0,0,937.23458,1257.50211Z"/><path class="cls-1" d="M1094.84828,1202.4587c-1.17-8.75087-3.14471-14.04507-4.92233-16.73614a79.086,79.086,0,0,0-5.11331,13.8373,208.73144,208.73144,0,0,1-9.615,24.50244c-3.33121,7.34009-12.27866,25.07145-12.27866,25.07145s-3.003-3.57707-5.61736-4.73639a12.98356,12.98356,0,0,0-16.539,4.88985c-3.48411-3.61015-6.49721-5.0209-11.89558-4.94473-8.60862.10977-13.3943,7.34009-13.3943,7.34009s-4.2385-7.39445-16.36427-7.21968c-9.85026.12041-20.9472,11.0919-21.07316,11.223a101.96432,101.96432,0,0,1-1.01712,10.403s14.2859-11.289,24.18489-11.4313c12.12017-.17473,16.36427,7.23088,16.36427,7.23088s4.79688-7.23088,13.3999-7.35073c5.39837-.07673,8.46076,1.3671,11.90678,4.95482a13.01325,13.01325,0,0,1,16.53341-4.87865c2.62554,1.14867,9.59319,7.70077,9.59319,7.70077s9.046-20.94721,11.81382-28.50572c3.31441-9.05722,5.65544-16.441,7.88671-23.81357,2.59249-8.56494,1.83754-11.2448,3.325-14.05572a25.19277,25.19277,0,0,1,2.83332,6.5627S1094.85948,1202.46991,1094.84828,1202.4587Z"/><path class="cls-1" d="M937.23458,1257.50211c4.76887,2.74539,9.48342,5.152,14.15429,7.32833a35.6964,35.6964,0,0,1,.569-23.40809c3.3088-9.40726,13.42173-43.73252,13.42173-43.73252s1.296-5.67732,4.01448-3.23824a9.07391,9.07391,0,0,1,1.64607,2.49449c-2.21508-8.24795-4.5998-12.34979-5.9669-16.408-.54717.71071-1.12683,1.56424-1.772,2.51577-4.45244,6.55209-9.68112,15.89382-16.17273,27.12742a83.04385,83.04385,0,0,1-30.1198,30.36564A81.741,81.741,0,0,0,937.23458,1257.50211Z"/><path class="cls-4" d="M1183.61544,956.718a.53053.53053,0,0,1,.02688-.05993l.0056-.033S1183.63175,956.6799,1183.61544,956.718Z"/><path class="cls-1" d="M1176.92053,964.97657c-2.01228-4.64342,5.56808-24.10312.27387-51.31287-5.28356-27.21535-10.337-24.42068-10.337-24.42068a.49624.49624,0,0,1-.10977.05489l-11.26664,3.74677s-9.615,8.13257-19.70046,8.76712c-7.23032.4486-14.47695-7.13231-14.47695-7.13231s-9.68616,7.4661-16.95512,7.65708c-7.88111.21338-18.48073-7.93039-18.48073-7.93039s-11.59483,8.6579-19.84215,7.6078c-7.23094-.9297-15.75163-9.861-15.75163-9.861s-9.62624,9.89959-17.75377,11.20112c-10.07428,1.61356-24.50244-8.86568-24.50244-8.86568s-.634,4.74707-1.88123,12.14709c.09857.07112,14.50433,10.47916,24.50244,8.86008,8.08889-1.31221,17.75321-11.2062,17.75321-11.2062s8.57614,8.92,15.76284,9.86094c8.21483,1.072,19.83157-7.60219,19.83157-7.60219s10.64324,8.13817,18.47506,7.936c7.25216-.18594,16.95513-7.66829,16.95513-7.66829s7.26287,7.586,14.48248,7.13231c8.29667-.51413,16.17273-6.038,19.70612-8.76207l5.71537,8.822a92.871,92.871,0,0,1,3.99264,8.97545h0c2.76723,7.624,6.02676,20.11609,6.88028,37.97291.3282,7.35073.3282,14.4612.51918,20.85984a133.707,133.707,0,0,0,11.29408-21.20988C1180.44273,963.97575,1178.184,967.83677,1176.92053,964.97657Z"/><path class="cls-1" d="M955.02027,944.12233c5.45326,25.97367,4.91169,45.69607,4.39756,67.90677a140.10276,140.10276,0,0,0,19.55273-25.0821c-2.10581,2.47208-7.03885,7.81-9.36868,6.2127-3.003-2.05653,3.7955-14.22542,1.49815-40.67518-1.56423-18.14692-6.14717-40.5822-8.86008-52.86594-6.2239.57409-13.20276,1.06638-20.60271,1.48755C941.79567,901.50545,951.43261,927.04175,955.02027,944.12233Z"/><path class="cls-1" d="M868.40876,903.376c5.70473,9.08463,14.67962,17.48546,28.42961,17.16235,9.67491-.22962,14.90919-8.07264,14.90919-8.07264,9.27564,11.79757,16.0904,12.53013,21.82257,10.88972-6.2351-8.4994-7.0119-15.6754-4.72575-21.60415C908.34578,902.66476,886.195,903.13521,868.40876,903.376Z"/><path d="M1050.03317,819.22541s-32.60812-53.25459-77.128-52.86651c-44.50937.39432-65.27064,18.53565-91.74728,30.21785-52.8771,23.32689-98.73727,14.41192-98.73727,14.41192s47.21108,20.23089,106.63462,1.586c31.02205-9.73541,52.106-24.8306,84.04141-25.11511,31.9187-.2733,76.93654,31.76581,76.93654,31.76581Z"/><path d="M1047.41883,836.5793s-28.30907-17.33765-56.20271-17.08618c-27.90982.24082-64.46075,19.39977-98.88457,22.71974-24.34955,2.35731-57.84313-2.52133-57.84313-2.52133s30.33263,13.33381,71.024,12.98377c40.70261-.36067,59.49528-11.857,92.67187-13.90282,33.16594-2.05093,49.2345-2.19318,49.2345-2.19318Z"/><path d="M578.46788,739.17664s21.73745-31.98983,65.16366-32.37291c43.43172-.37692,75.41874,21.36333,75.41874,21.36333a100.4901,100.4901,0,0,0-39.023,12.87456,78.39273,78.39273,0,0,0-28.85912,29.28808s23.53747-26.43291,74.0461-28.57681c27.59-1.17051,36.49945,5.26677,53.38844,3.25393,21.21043-2.52138,29.32682-15.28117,29.32682-15.28117s-27.6965,5.83018-43.098,1.30161c-15.39873-4.51741-68.62083-42.82975-110.64966-42.46343-59.8638.51974-75.71394,50.61281-75.71394,50.61281Z"/><path d="M578.36371,1015.4908s8.71839-14.75579,20.78367-26.36743c12.07312-11.61107,15.55168-14.65218,15.55168-14.65218s3.64815-40.39066,21.757-87.25165c16.5334-42.79162,53.15321-82.023,53.15321-82.023s-43.17185,25.46518-70.669,81.67294c-40.47243,82.76164-40.5766,128.62129-40.5766,128.62129Z"/><path d="M715.11533,833.97056s-44.69245,56.01678-56.50851,134.12328c-10.184,67.29966,1.22205,155.50341,48.70413,183.06319,47.48938,27.543,83.21533,20.28018,83.21533,20.28018s-49.04072-3.096-87.09035-65.62621c-64.95639-106.755,11.6794-271.84044,11.6794-271.84044Z"/><path d="M1036.2726,766.05315s-27.30832-45.532-71.82323-45.14385c-44.50869.38811-65.34675,28.24865-91.66489,40.28145-26.3187,12.0216-55.65555,21.09506-55.65555,21.09506s47.01389-2.14954,76.31825-16.24386c29.28257-14.09436,39.23695-26.76674,71.16629-27.04005,31.9299-.27891,71.65913,27.05125,71.65913,27.05125Z"/><path class="cls-1" d="M1040.98715,1351.28905a137.18583,137.18583,0,0,0,14.13805-23.66012c-14.96413,7.64644-43.94583,20.03989-72.40289,18.61794-40.80623-2.06773-67.17925-17.93971-114.67422-79.305-19.15391-24.74327-35.321-39.685-47.81309-48.69853,13.34557,11.59483,29.27188,30.44183,42.48584,60.50114,27.226,61.87945,35.36416,74.94051,49.91273,81.56933a52.4766,52.4766,0,0,0,10.906,3.62076,92.10862,92.10862,0,0,0,9.49463,1.47631c1.66225.20775,3.21584.39372,4.62668.6239a32.65662,32.65662,0,0,1,4.94467,1.13747,17.68229,17.68229,0,0,1,10.23844,7.7775,30.46915,30.46915,0,0,1,2.26425,4.68148c.96778-.45925,25.47582-20.78309,25.47582-20.78309s3.9815,6.355,5.03154,11.21173c1.2198,5.62243.32819,6.86967.56341,7.58038.9297-.71071,7.59716-5.43646,11.46945-9.88834,4.09058-4.72575,8.52119-13.564,8.52119-13.564s4.8344,7.87609,5.98307,13.531a55.819,55.819,0,0,1,.66765,6.19144l2.51571-1.33461C1023.85729,1367.88294,1033.81122,1360.8604,1040.98715,1351.28905Z"/><path class="cls-1" d="M1196.56113,838.302c1.50935-2.50457,2.91509-4.82936,3.99768-7.08247a62.006,62.006,0,0,0,3.16151-8.0564,52.11644,52.11644,0,0,1,5.31045-3.22144c2.01284-1.12123,4.1517-2.35167,6.26255-3.67509-.48109,17.76941-4.26035,31.62355-8.379,41.55a86.2771,86.2771,0,0,0-20.28018-8.35155A48.45506,48.45506,0,0,0,1196.56113,838.302Z"/><path class="cls-3" d="M1049.62321,1207.42472l2.55386,9.17763c-.45365.03305-.8641.02185-1.34526.07673a27.9118,27.9118,0,0,0-9.49462,3.1828,34.38653,34.38653,0,0,0-10.70939-1.45447,47.38831,47.38831,0,0,0-12.46964,1.9798c-1.02266.30635-1.94171.6015-2.73475.87481a38.02091,38.02091,0,0,0-13.04986-3.06239c-3.3637-.1753-2.89885-.16409-5.45271.54662-.6127-4.37516-4.15113-12.22938-6.09844-20.2253-5.96684-24.66653-13.67321-46.8061-23.7038-46.34685-7.1648.33939-12.64488,7.64588-16.67063,13.59647-4.62151,6.8366-10.09612,16.55021-16.84535,28.24361a65.79714,65.79714,0,0,1-14.4276,17.294c-1.06691-1.8051-2.12205-3.68629-3.15591-5.74282-12.53573-25.19131-10.0362-63.65146-32.14329-90.976-17.10242-21.1337-59.35807-22.12332-77.58727-21.49438q-6.94086-8.54869-12.53018-16.59393c14.46624-8.762,47.91669-27.02938,76.85981-27.78937,38.11018-.99578,58.95932,7.12111,74.88562,26.04483a244.91768,244.91768,0,0,1,27.48866,40.98657s-1.85378-27.77821-19.17519-51.74468c-1.739-2.401-3.74117-4.81312-5.852-7.21968a34.18169,34.18169,0,0,1,21.374-2.20945c14.94228,3.40741,36.80854,19.85905,48.81894,59.77927,12.0216,39.91517,8.68534,61.092,20.80495,78.23307C1043.667,1199.24283,1047.12375,1204.02294,1049.62321,1207.42472Z"/><path class="cls-1" d="M403.68007,593.10288c14.31839,12.142,43.9459,25.7004,104.85756,27.11118,7.13175.1585,13.8177.59646,20.13793,1.20861l39.39264-40.58225s-71.70282,13.90343-129.18246,7.99092a232.40071,232.40071,0,0,1-66.4243-16.8784c-.44016-.03249-.91345-.08177-1.33461-.10921C383.33156,579.34735,399.29091,589.37851,403.68007,593.10288Z"/><path class="cls-1" d="M446.38992,602.00161A229.27144,229.27144,0,0,1,379.815,577.2309c10.14821,6.33871,20.46892,12.98938,23.8651,15.872,14.31839,12.142,43.9459,25.7004,104.85756,27.11118,7.1536.1585,13.86424.59646,20.20346,1.21421l28.51972-29.45782C535.35871,598.75273,488.08216,610.57718,446.38992,602.00161Z"/><path class="cls-5" d="M955.57305,648.81051s-3.83975,19.86406-21.2754,22.42968c-6.16958.90225-15.6642-3.09039-15.6642-3.09039L863.7547,632.24126c-.42676-.30635-.87537-.58245-1.324-.86976L827.821,608.7122s-37.00513,10.28482-72.0411,18.94c-35.03653,8.6579-51.80516,4.13209-51.80516,4.13209s6.77892,9.65872,36.51564,15.41273c2.12485.41,4.33707.7544,6.60922,1.06075-2.975.75215-5.92035,1.51775-9.02978,2.19878-37.21851,8.16561-75.54425-4.78288-75.54425-4.78288a133.50862,133.50862,0,0,0,36.06989,18.89908,110.37707,110.37707,0,0,0,42.297,5.1962s.47549,7.20848-16.14025,13.41049-23.66572,3.83419-23.66572,3.83419,9.1474,9.8665,34.54985,6.51345a66.66454,66.66454,0,0,0,18.49982-5.6056c6.32521,19.952,36.54862,32.9576,71.355,29.64879,23.41985-2.23126,43.37184-11.31592,54.671-23.34816a121.5952,121.5952,0,0,0,24.53549,6.97885c48.53443,8.16562,57.18673-13.71744,58.31357-24.14736C964.64091,661.852,955.57305,648.81051,955.57305,648.81051ZM785.828,678.65085a19.638,19.638,0,0,1,3.57707-12.84208c4.47373-.68887,14.24726-2.00444,33.78929-3.90247.17474.80144.35,1.60008.48109,2.341,1.75023,10.0502.97337,26.14621.97337,26.14621s4.90609-3.84479,11.86311-16.39172c.77679-1.41078,1.44942-2.93133,2.13325-4.42444a169.82693,169.82693,0,0,0,21.69656,15.07334c-4.99906,6.78172-17.41432,13.85354-34.55488,16.24946a48.28647,48.28647,0,0,1-18.2567-1.231C795.26268,695.68214,786.73583,688.0799,785.828,678.65085Z"/></svg>