<svg id="Layer_1" data-name="Layer 1" xmlns="http://www.w3.org/2000/svg" viewBox="0 0 1500 1500"><defs><style>.cls-1{fill:#db5126;}.cls-2{fill:#f76902;}.cls-3{fill:#fff;}.cls-4{fill:#d0d3d4;}.cls-5{fill:#231f20;}</style></defs><title>RIT-00070A_RGB</title><path class="cls-1" d="M357.17378,87.63442c32.32941-7.76844,58.26924-4.34868,77.52011,9.09425,19.21266,13.45434,28.91365,34.91034,28.91365,63.73446v71.342c0,18.67783-6.63246,34.20324-19.76922,46.83363-13.14241,12.67994-33.35471,22.982-60.4299,31.92,29.13325-1.14676,49.877,3.0297,61.9975,11.29362,12.10058,8.28627,18.20162,22.11925,18.20162,41.22015v69.32057q22.25663-3.43344,44.65581-6.137v97.437a1324.83185,1324.83185,0,0,0-131.415,22.58166c-20.08685,4.51633-35.01123,4.90011-44.84.62328-9.83728-4.2546-14.7294-13.23708-14.7294-27.16415V371.54807q-42.66394,11.72014-84.4674,26.36866V587.45557a1235.7998,1235.7998,0,0,0-185.24315,82.4128V572.41424q19.79739-10.85031,39.99231-20.96046V283.138Q67.38,293.25357,47.56839,304.10475V206.63408c97.45124-53.388,201.83839-93.06553,309.60539-118.99966M232.81154,311.14384q39.47343-13.833,79.82048-25.07078V196.64392q-40.31682,11.2011-79.82048,25.048Z"/><path class="cls-2" d="M366.18705,124.1825l.01659.06158-.02229.01084H365.886a1232.04935,1232.04935,0,0,0-219.3877,75.15645q-19.676,8.89666-40.75534,19.41852-10.44573,5.21251-20.368,10.38585v12.92515l39.98665-20.03666V574.63078l-20.969,10.48617q-9.4056,4.71912-19.16761,9.83448V608.01q39.51448-19.13709,80.39642-35.56212,13.8749-5.57186,27.20634-10.586l2.17724-.81887V371.23615l25.4049-8.89866q31.28244-10.99316,62.39557-20.1701l12.2009-3.6028c3.96552-1.13079.15629.01084,12.36574-3.33593l.0114-.0057,47.6935-13.00841V511.8874a126.59909,126.59909,0,0,0,13.49316-2.37791Q417.704,498.483,465.75114,491.333c1.20321-.18932,2.77589-.41229,4.71415-.68486V469.581l-1.1.16708-43.56151,6.72717V363.07254q0-7.65134-1.49575-9.90685l-.16651-.15568c-3.22473-2.2057-10.13551-3.75905-20.83842-4.52774-3.72878-.27257-6.58233-.41741-8.53713-.43965q-4.21438-.059-9.815.16138v.0057h-.13914l-.02224-.52349-13.20114-73.01233c12.09259-3.99285,22.08041-7.9857,29.838-12.05667a70.73116,70.73116,0,0,0,16.2799-11.14314,26.60525,26.60525,0,0,0,6.24023-8.60954,28.15553,28.15553,0,0,0,2.00436-11.05937h-.14713V160.458h.14713c0-12.13992-2.40529-21.35678-7.18337-27.51541a24.27855,24.27855,0,0,0-2.5507-2.768,28.83238,28.83238,0,0,0-2.41669-2.09393l-.06667.10036-.59306-.5902c-6.7945-4.7393-16.20524-6.88855-28.234-6.22593q-3.51726.20016-8.89637,1.01333-6.1056.92721-9.823,1.80425M348.1662,51.00879l.02795-.00571h.29538q9.81875-2.36337,16.29929-3.34112,7.44339-1.13583,15.9885-1.59833C409.78791,44.4544,434.79425,51.12,455.57964,65.404l.081-.13344.01083.01083.58512.58507a104.40371,104.40371,0,0,1,11.94486,9.66735,100.26259,100.26259,0,0,1,10.22162,11.3324c15.189,19.59079,22.8434,44.227,22.8434,73.59176h.14428v71.34716h-.14428a102.28068,102.28068,0,0,1-7.919,40.30662,99.98394,99.98394,0,0,1-16.72013,26.71365,74.94,74.94,0,0,1,7.509,8.40311c11.49726,14.96891,17.27441,33.64149,17.27441,55.844v25.9672c.8719-.1055,1.68507-.21156,2.42524-.29482l42.23113-5.08429V557.195l-33.37125,4.00368h-.02224c-9.37761,1.1365-15.38632,1.87668-17.93987,2.21654-3.09015.418-9.12162,1.29788-18.05393,2.62883q-46.97413,6.99945-91.56465,17.00125a170.13862,170.13862,0,0,1-33.94149,4.4941c-12.90861.21726-24.29976-1.75978-34.22319-6.08679l.01368-.05018a58.80331,58.80331,0,0,1-29.083-26.45191q-8.2654-15.211-8.25257-35.21656h-.14765V422.06257q-4.45225,1.4122-8.86848,2.85122V614.12474l-25.24584,8.91577-.01141.0057h-.15282q-11.887,4.1682-25.795,9.3942-13.23936,4.97053-25.7277,9.99581a1190.8599,1190.8599,0,0,0-127.9542,60.50516L9.92088,733.54182V549.15342l19.52112-9.762-.03018-.061c.52059-.284,2.55865-1.39254,5.84724-3.1689,6.19228-3.35241-4.16848,2.29471,5.71328-2.996q4.34355-2.32231,8.78746-4.64407v-182.567L9.76459,367.91733V183.89674l19.68882-10.269-.0365-.07242q21.98976-12.053,42.65425-22.36383,20.63235-10.28321,43.41154-20.59379a1308.70962,1308.70962,0,0,1,232.7-79.51653ZM270.61245,259.03665c1.39767-.418,2.80108-.84681,4.221-1.26993v-10.4081c-1.41991.45107-2.82332.90783-4.221,1.3589Zm-25.97861,87.8421-.01653.00513-11.80577-35.74H195.005V194.9954l25.4049-8.88783q30.45959-10.675,58.92331-19.15677c5.03982-1.498,8.938-2.6562,11.68031-3.44142,1.62919-.47331,2.27242-.60161,11.56683-3.18539h.15l.0057-.0057,47.70491-13.00841V314.66281l-27.76575,7.72966q-26.258,7.31766-55.86054,17.08508c-6.83551,2.24961-10.464,3.45853-10.809,3.57543-6.6211,2.24391-10.1743,3.46366-10.781,3.66952Z"/><path d="M361.90737,82.89569c32.32376-7.76273,58.26868-4.33271,77.523,9.10509,19.21495,13.45376,28.91024,34.9052,28.91024,63.72362v71.34722c0,18.67207-6.63246,34.20324-19.77436,46.82787-13.13158,12.67995-33.35756,22.98825-60.42989,31.92568,29.136-1.14676,49.8935,3.02971,61.99978,11.29939,12.10114,8.28045,18.20447,22.11349,18.20447,41.21438v69.32057q22.266-3.43344,44.65637-6.1478v97.44786a1321.38684,1321.38684,0,0,0-131.415,22.58166c-20.08684,4.51063-35.01412,4.90068-44.8514.61815-9.82587-4.24889-14.718-13.23708-14.718-27.14823V366.81505q-42.6554,11.71936-84.47024,26.36238V582.72254a1236.18987,1236.18987,0,0,0-185.2432,82.41224V567.68635q19.80173-10.85887,39.9895-20.96616V278.41012q-20.17294,10.10785-39.9895,20.961V201.90048C149.75322,148.5074,254.13468,108.835,361.90737,82.89569M237.54229,306.41589q39.48112-13.8329,79.83135-25.07643V191.91608q-40.33314,11.19332-79.83135,25.04284Z"/><path class="cls-1" d="M872.075,49.93958v97.45356q-22.46191-1.9374-44.96773-3.11809V412.61243q22.48671,1.136,44.96773,3.10213v97.45361a1340.27713,1340.27713,0,0,0-247.69689,1.62629V417.33468q22.42855-2.2385,44.94835-3.70887V145.31625q-22.491,1.48671-44.94835,3.70323V51.57105A1341.31246,1341.31246,0,0,1,872.075,49.93958"/><path class="cls-2" d="M834.27983,106.903V85.06205a1301.70381,1301.70381,0,0,0-138.46494-.93577q-14.85258.71-33.75559,2.08823h-.02224V107.9773l4.87558-.317.053-.0057,40.16171-2.63966V448.99348l-35.43667,2.289q-4.97823.3336-9.51167.64552v21.86886a1380.58474,1380.58474,0,0,1,141.372-2.46688q16.79853.568,30.87358,1.34749V450.792q-5.0535-.30879-9.24423-.52348l-35.87975-1.8322V104.53588l39.72206,2.08823c1.782.08383,3.54178.18419,5.25708.27885m75.60181-56.96338v138.7187l-41.053-3.61421h-.04448c-2.038-.17278-3.17455-.27834-3.88165-.33987V377.22827c4.071.30109,7.55688.58507,10.43033.82971l34.404,2.97382V554.31014l-40.75249-3.49161-.434-.03307q-19.31331-1.65427-33.7248-2.52276-18.66066-1.11113-33.641-1.62063a1304.43358,1304.43358,0,0,0-173.109,5.66366L586.58584,556.432V383.18162L620.736,379.84v-.01659l6.42665-.60668c1.40337-.13971.88565-.07243,4.355-.38435V186.19653c-1.181.11177-2.33059.21721-3.442.32846l-41.345,4.09322V17.45677l33.96374-3.38554.43167-.05018q20.031-1.98873,35.60946-3.13007Q672.452,9.75506,692.27824,8.825a1377.688,1377.688,0,0,1,182.904,3.45282l34.69935,2.99607Z"/><path d="M868.55035,53.74881v97.465q-22.46191-1.94681-44.97913-3.11866V416.43255q22.51152,1.14449,44.97913,3.09642v97.45356a1341.23869,1341.23869,0,0,0-247.6946,1.632V421.15531q22.41572-2.23935,44.94321-3.70373V149.13067q-22.49527,1.48749-44.94321,3.71457V55.39168a1341.23341,1341.23341,0,0,1,247.6946-1.64287"/><path class="cls-1" d="M1345.60052,519.856v97.4376a1278.92766,1278.92766,0,0,0-234.67423-73.302V446.53744q21.24987,4.47785,42.36742,9.66222V187.88959q-25.82863-6.34852-51.83454-11.61644v76.08651q-56.02487-11.3524-112.8684-17.84236V60.99946c163.71136,18.66637,323.85869,67.71648,468.68633,147.099V381.61687q-50.2365-27.54106-102.78876-50.19173V255.33343q-24.40017-10.53375-49.20578-20.0309V503.63426q20.29783,7.73508,40.318,16.22173"/><path class="cls-2" d="M1307.80532,561.76151V545.08872c-4.14333-1.62634-9.44495-3.68149-15.96056-6.16491L1267.476,529.6237V180.39943l51.24384,19.61925q17.52474,6.69914,36.54237,14.64557l7.15029,3.03484c8.35351,3.54749,3.40835,1.38684,6.98891,2.935l1.04127.59026h0l21.85239,10.19653v75.46832q13.56515,6.18951,27.18118,12.7969v-89.0339a1224.03809,1224.03809,0,0,0-302.55835-110.06172q-31.54163-6.99081-65.98978-12.7466-12.1787-2.0469-24.53646-3.848V201.2601q18.74535,2.61485,37.26659,5.69731V130.2191l45.185,9.14951q13.833,2.78173,26.70795,5.67455,16.18866,3.6336,26.75243,6.22074l28.80188,7.06082V504.34707l-42.52309-10.47487v19.86964A1325.35524,1325.35524,0,0,1,1294.067,556.76618q7.28345,2.61477,13.73832,4.99533m75.60181-41.90552V673.46547l-51.97946-21.17772h-.01083l-.44536-.29539q-12.8476-5.43756-31.0629-12.5408-18.47762-7.22527-31.24082-11.80581a1250.41525,1250.41525,0,0,0-165.41524-46.73886l-29.98286-6.304V400.066l42.22258,8.90436V293.49079l-21.12754-4.071h-.02218l-.28975-.14484q-2.85692-.57651-15.25859-2.94018c-1.57608-.30109-6.66045-1.20835-15.29166-2.74008q-39.837-7.07464-79.19948-11.5662l-33.51324-3.83717V18.74324l41.93289,4.74443.03365.0057h.13914q34.86642,3.97575,70.44,9.92339,33.80491,5.65568,69.82125,13.64366c119.38913,26.49632,234.99185,69.14779,342.28561,127.95984l19.64141,10.76456V444.82215l-55.67121-29.97089-.0057-.0114-.28969-.15q-3.54207-1.92971-13.6716-7.31737c-7.87963-4.18217-12.49055-6.616-13.77709-7.28429q-33.05306-16.99014-68.574-32.44347V478.00693c4.6611,1.90974,10.38578,4.30477,17.12949,7.14458l23.18327,9.80136Z"/><path d="M1347.97273,526.95667v97.437A1280.22593,1280.22593,0,0,0,1113.29851,551.086V453.63242q21.23361,4.477,42.36742,9.66734V194.984q-25.82863-6.33141-51.84545-11.605v76.08081q-56.01707-11.36012-112.86839-17.83666V68.09951c163.72225,18.67213,323.85867,67.71077,468.69153,147.09393V388.72268q-50.23564-27.54107-102.78306-50.19744V262.43359q-24.39932-10.53382-49.21149-20.02525V510.74q20.29869,7.7437,40.32366,16.21665"/><path class="cls-3" d="M896.371,1258.17748c-11.94136-16.79617-23.93086-33.61564-35.515-49.5623-21.45065-29.54511-41.46628-56.09285-57.14582-73.83017-6.08327-6.88775-14.17929-14.8937-22.38713-24.55674-8.27617-9.7733-16.73094-21.28136-23.28324-35.04755-13.218-27.66748-18.58683-63.98853-.64917-112.824,15.45434-42.07041,39.94585-64.24478,61.70711-73.723,41.5781-18.10539,101.92163-11.37294,145.51248-17.90971,21.85133-3.27692,51.53-9.82921,80.91826-15.75718,29.65849-6.00407,59.00178-11.36052,79.84667-12.17742,8.565-.33546,16.39393-.35254,23.5954-.09474.38057-6.324-.80448-14.0566-7.53693-18.576-12.8592-8.58834-35.338-8.06651-65.599-35.23081-7.40336-6.65946-7.42511-16.59583-6.30692-23.32673a24.94867,24.94867,0,0,1,1.32009-5.70433,83.8958,83.8958,0,0,1-8.902-10.16c-13.6202-18.64119-16.12534-22.17437-16.12534-22.17437s.49232,21.61061,9.28255,40.34033c8.83216,18.73282,27.06024,42.05954,27.06024,42.05954s-34.64376-30.18186-49.82942-46.98425c-12.18985-7.28067-41.87008-23.24907-66.65045-22.70706-32.0501.69887-41.89026,13.55808-71.12321,28.10234-29.2314,14.53183-76.40046,17.30557-76.40046,17.30557s1.09489-.36341,3.04086-1.01724a93.68066,93.68066,0,0,1-27.01831,2.61222c-22.87945-1.24244-23.7973-2.97564-23.7973-2.97564s20.7565-10.188,29.34484-23.48979a53.04083,53.04083,0,0,0,8.18454-27.34756c-1.564,2.23173-9.952,12.78622-28.93949,15.3037-16.93129,2.23172-25.9669-4.12644-53.65613-2.561-50.682,2.80635-73.98547,29.65227-73.98547,29.65227a78.97257,78.97257,0,0,1,28.604-29.792A100.44856,100.44856,0,0,1,718.945,732.604s-32.40893-21.432-75.99978-20.47534a83.51676,83.51676,0,0,0-63.83167,31.71472l-.64917,1.21293S600.00356,729.1609,619.193,727.875c19.21271-1.29213,38.64906,2.64949,38.64906,2.64949s-56.29624,25.178-87.65221,75.80254C538.81051,856.9516,534.6732,916.646,534.6732,916.646s47.34766-44.85968,82.97605-59.75493c18.27312-7.627,31.0438-13.49751,39.14137-17.41118,18.15975-19.76094,33.61409-29.16617,33.61409-29.16617s-36.25426,39.90547-52.291,83.08476a367.70694,367.70694,0,0,0-20.4862,85.51994A184.59573,184.59573,0,0,1,637.98022,962.585c16.34883-11.16017,24.96046-16.3489,29.43323-18.75767,15.92491-62.378,48.98-104.95162,48.98-104.95162s-74.79,166.78142-8.13957,273.14166c39.028,62.28795,88.32163,64.74952,88.32163,64.74952s-.24538.05436-.67092.13356c.62743.01243,1.25331.02175,1.85589.045,22.50058,26.39244,34.914,44.765,41.53462,56.03695,10.44422,8.96883,22.63251,21.40405,36.36608,38.6708,48.51244,61.002,75.19374,76.59148,116.18945,78.12434,28.58378,1.084,57.54806-11.76586,72.48834-19.63825.80448-1.7891,1.56547-3.50056,2.21464-5.11106,3.21954-7.79318,3.4431-7.78231,3.4431-7.78231s17.06641-5.18872,23.88738-13.409a25.21281,25.21281,0,0,0,4.7197-10.05286,178.86462,178.86462,0,0,1-41.42124,13.78793C1006.05475,1318.38591,931.46358,1307.53944,896.371,1258.17748ZM1000.68587,839.983c-33.25837,2.49884-51.97884,14.28645-92.86273,15.181-40.8404.893-71.482-12.106-71.482-12.106s33.684,4.4619,58.12889,1.77669c34.51175-3.78943,70.96791-23.50533,98.9693-24.13121,28.02468-.5886,56.67524,16.44364,56.67524,16.44364S1033.9878,837.49351,1000.68587,839.983ZM882.61724,799.1535c26.45766-12.07181,47.08053-30.57478,91.76627-31.547,44.6873-.98463,78.14609,52.06892,78.14609,52.06892s-45.62534-31.592-77.69881-30.89471c-32.0501.71129-53.02869,16.14855-84.05075,26.32565-59.42569,19.50779-107.11036-.18015-107.11036-.18015S829.85566,823.26917,882.61724,799.1535Z"/><path class="cls-3" d="M539.75017,613.748l25.65312-27.11926s-71.81743,14.90612-129.61086,9.7174a234.27683,234.27683,0,0,1-67.0061-16.08644q-.6383-.05124-1.2766-.07765c2.9073,1.727,5.99475,3.5953,9.12569,5.47293A230.36154,230.36154,0,0,0,443.5095,609.4802c41.9586,8.0572,89.26278-4.42773,111.17934-11.52359Z"/><path class="cls-3" d="M1212.19963,818.29322a55.55621,55.55621,0,0,0-5.3021,3.30488,64.42294,64.42294,0,0,1-3.06415,8.14727c-1.05141,2.27521-2.43828,4.62341-3.93542,7.172a48.357,48.357,0,0,1-9.7966,11.32945,86.37767,86.37767,0,0,1,20.46447,8.11311c4.027-10.0249,7.65029-23.993,7.89575-41.85765C1216.35868,815.88289,1214.21237,817.14241,1212.19963,818.29322Z"/><path class="cls-3" d="M1044.54539,652.11437c1.25331,1.6571,2.43828,3.322,3.55492,4.91539a45.06369,45.06369,0,0,1,14.785-4.7461,43.60734,43.60734,0,0,0,4.49451-.716c-.60258-1.43656-1.185-2.81877-1.81085-4.13731a20.11752,20.11752,0,0,0-3.26449-5.09554,29.15323,29.15323,0,0,0-7.87394-5.886l-15.56616,9.20955c.38049.34477.73769.70974,1.09645,1.08868A61.48465,61.48465,0,0,1,1044.54539,652.11437Z"/><path class="cls-3" d="M1102.53917,1203.77279a.3221.3221,0,0,1,.0233.15686v.01087a25.50952,25.50952,0,0,0-2.9306-6.54142c-1.45357,2.84051-.64762,5.52417-3.15423,14.16842-2.12456,7.436-4.38269,14.89525-7.582,24.01006-2.68211,7.63788-11.49563,28.78413-11.49563,28.78413s-7.08965-6.47465-9.75-7.61613a13.11472,13.11472,0,0,0-16.55234,5.13436c-3.4664-3.56889-6.57559-4.96508-12.00969-4.83152-8.61008.23451-13.32978,7.56954-13.32978,7.56954s-4.38425-7.38007-16.529-7.05548c-9.9752.27955-24.1545,11.786-24.1545,11.786a99.33108,99.33108,0,0,0,.87281-10.43335,53.76739,53.76739,0,0,1,11.40556-8.57591,53.46569,53.46569,0,0,0-11.40556,8.57591,403.69876,403.69876,0,0,0-4.80978-44.97772,118.90226,118.90226,0,0,0-3.01911-14.0333,8.59466,8.59466,0,0,0-1.63225-2.38237c-2.77374-2.39324-4.00375,3.30953-4.00375,3.30953s-9.70653,34.61115-12.90425,44.10646a35.64072,35.64072,0,0,0-.24693,23.53949c36.29938,16.32716,69.48941,16.484,97.40228,9.33846a182.67226,182.67226,0,0,0,43.4138-17.245c.49076-.29042,1.00481-.59171,1.52043-.88369.3572-5.28811.75943-11.75344,1.07315-18.54179.716-14.81605.9163-29.75633-.1786-37.23735A.27709.27709,0,0,0,1102.53917,1203.77279Z"/><path class="cls-3" d="M1090.59626,775.84231c-.851-14.81605,26.3241-19.91,42.07042-19.15525,15.7665.761,40.99571,10.13051,53.90151,8.94553,10.22058-.9225,22.746-15.54442,22.746-15.54442l-.42561-.74235.29042.80448c-1.43191.514-15.52113,5.61425-27.756,6.72157-10.48926.96755-29.09628-5.05516-44.14994-7.73882a78.09174,78.09174,0,0,0-9.72827-1.21448c-15.74624-.75478-42.91993,4.35629-42.09371,19.1568A11.85543,11.85543,0,0,0,1090.59626,775.84231Z"/><path class="cls-3" d="M1131.43667,873.40766c-22.09827-.07766-50.92743,5.26171-79.7131,11.418-28.896,6.16248-57.34461,13.02849-78.32313,15.80688-2.48332.3308-5.167.6383-8.00743.93959,2.90723,12.30011,7.80553,34.76179,9.61638,52.96192,2.64018,26.526-4.00375,38.83232-.96133,40.85749,2.37157,1.57634,7.33658-3.94784,9.39281-6.4296a190.3698,190.3698,0,0,0,12.1681-23.67461c8.81205-20.45981,13.66524-55.02591,13.95566-57.16135a.49255.49255,0,0,0,.02174-.10716h0c1.14149-7.46393,1.72232-12.22867,1.72232-12.22867s14.62813,10.34483,24.71515,8.59921c8.1628-1.4257,17.69228-11.49564,17.69228-11.49564s8.67686,8.857,15.94511,9.70808c8.29946.94425,19.84014-7.90189,19.84014-7.90189s10.75638,8.04167,18.62876,7.72174c7.33658-.29042,16.95459-7.91742,16.95459-7.91742s7.38006,7.52139,14.64986,6.96074c10.10877-.75944,19.63669-9.04027,19.63669-9.04027l11.27208-3.909c.045-.03261.09-.06057.09-.06057s5.0536-2.86847,10.73472,24.37193c5.65921,27.26524-1.67729,46.89106.38041,51.53156,2.08108,4.62962,6.64237-8.47652,6.64237-8.47652l-.1786.53114a167.03387,167.03387,0,0,0,6.33021-20.26412,378.40645,378.40645,0,0,0,7.42511-39.51876c.5358-4.09849.98463-7.96246,1.36357-11.53136-4.07053-1.28592-8.76693-2.64949-13.75531-3.91367C1174.40008,877.35083,1153.57842,873.48686,1131.43667,873.40766Z"/><path class="cls-3" d="M703.11017,636.67711c-.3805-.40845-.56065-.63674-.56065-.63674s16.90955,4.32212,51.97884-4.82687c35.06929-9.1583,72.0628-19.98923,72.0628-19.98923l33.83929,21.52209,2.90729,1.85123,55.24334,35.1252s9.59471,3.89814,15.76806,2.89643c15.2307-2.43828,19.92866-17.92679,20.8667-21.86842-2.61688,2.71162-17.40031,17.09436-29.455,8.93622-37.90981-25.66561-90.53627-68.73619-90.53627-68.73619-44.285,2.51593-94.94381,30.01413-115.38653,27.84609-20.44117-2.17116-54.14689-13.07353-54.14689-13.07353S675.30757,624.95318,703.11017,636.67711Z"/><path class="cls-3" d="M823.19155,667.06708l-.49225-2.3482c-19.57,2.15252-29.41162,3.5953-33.88438,4.35474a18.93258,18.93258,0,0,0-2.036,10.5079,18.69662,18.69662,0,0,0,3.39968,8.68928c3.46632,2.21309,21.9196,13.27231,40.63844,10.38831,16.64087-2.54544,25.65474-6.12365,29.61345-11.4801a173.45418,173.45418,0,0,1-22.09672-14.889l-2.12612,4.39356c-6.821,12.693-11.71927,16.60671-11.71927,16.60671S825.04744,677.12615,823.19155,667.06708Z"/><path class="cls-3" d="M952.48722,924.79323a14.89714,14.89714,0,0,1,2.55,2.66813c0-.02951-.045-.0792-.06678-.10716a190.65517,190.65517,0,0,1-6.28517-21.09655c-.20189-1.01725-.40224-2.07953-.60258-3.17132-5.681.42709-11.67579.806-17.804,1.143-2.75206,6.21684-2.14638,13.81588,4.58452,22.84062,0,0,0,.01088-.02175.01088C941.4606,925.13956,946.62751,920.013,952.48722,924.79323Z"/><path class="cls-4" d="M1280.88456,806.90319c-1.20827-31.08729-12.01116-57.25142-21.56091-74.80238-3.30946-6.07861-6.75419-11.5065-9.72982-15.92336a101.69711,101.69711,0,0,0-12.23333-15.84726c-16.59428-17.45622-39.47528-28.65056-68.39444-39.74862-10.33248-3.97579-20.30768-7.69533-29.52337-11.0437l-4.04731-1.47073-1.02967-4.17148a151.87481,151.87481,0,0,0-5.56922-17.86466c-9.34777-25.16088-31.6029-40.23628-45.849-48.06362l-3.60151-1.97392-.51406-4.04723a58.59632,58.59632,0,0,0-1.65554-8.29792c-4.13731-15.12044-16.28212-33.34852-41.08579-37.92845-11.18347-2.04535-25.25094-.74235-34.1297.25781-4.31591.47057-8.76841,1.06228-13.10614,1.699l-2.86381.41-2.50351-1.5049c-15.76806-9.58383-33.75076-20.14143-42.29405-24.31135-25.38607-12.18985-45.717-15.3037-59.24709-15.40931h-1.29679l-1.23-.41932c-5.973-2.036-14.31441-4.76474-23.77556-7.5276-17.69072-5.17164-43.3672-11.69132-65.26351-12.34515a429.424,429.424,0,0,0-59.31393,2.39945l-4.31746.4861a707.876,707.876,0,0,0-87.60723,16.22621S565.335,505.0504,522.41658,510.73454c-42.586,5.62668-105.25292,5.88293-138.30947,4.53489-9.30428-.36186-17.35682-.72527-24.26786-.77031a128.2946,128.2946,0,0,0-25.11584,1.95218c-23.88737,4.7958-44.17323,21.828-49.81078,50.109l-2.168,14.45418,1.87918,7.23564c7.38007,28.40518,35.20285,70.8095,53.49771,93.51656a226.71521,226.71521,0,0,0,22.12,23.78177l5.88138,5.445-5.4108,5.91089c-11.96621,12.999-24.37964,25.79761-34.30986,34.54747-34.108,30.00481-91.76628,94.94381-113.8195,179.67635-15.76806,60.67278-38.73759,132.29918-46.78857,157.05782,10.7129,1.74406,27.91287,4.5178,35.762,5.44652l17.35682,1.946-6.42023,10.74706a87.99958,87.99958,0,0,1-6.352,9.326,68.227,68.227,0,0,1-6.97633,7.73882c-.64912.60414-11.69753,9.58384-22.61232,18.41756l-13.71022,11.11669c8.18454,7.08964,21.15707,18.27156,26.8381,22.836,4.36256,3.48814,9.08065,7.14556,13.48664,10.29824a89.62037,89.62037,0,0,0,12.94928,8.05253,162.48159,162.48159,0,0,0,41.39956,12.72565l7.56016,1.331-1.29834,10.33241c-3.24276,22.17592-24.1545,80.763-24.37814,81.41213l-7.53692,21.03444c28.6723-6.13919,92.14677-19.96128,106.12572-24.69186,5.94816-2.01274,12.77069-4.5178,19.88208-7.57109l5.74942-2.47089,3.8018,4.976c2.12456,2.76287,4.3392,5.50244,6.61913,8.242a257.08072,257.08072,0,0,0,52.673,46.947c8.20784,5.55679,24.64681,14.06747,38.222,20.83253,9.35088,4.65292,29.68023,14.32528,42.11546,20.20821l4.65143-50.16643,11.80928,10.13206c13.04092,11.1493,25.11739,20.65393,35.18111,28.10233,8.40974,6.18423,15.4559,10.98158,20.55454,14.10165a33.98744,33.98744,0,0,0,7.20309,3.36544l.983.32459.84958.5591c8.34289,5.31141,23.73052,13.3189,37.26213,20.05135,9.12413,4.55042,29.11958,14.06748,41.443,19.91624l3.40117-36.82579,1.29524-13.308c.27023-2.59359.31371-4.406.49231-5.08778l1.20827-3.01911c1.87919-4.07053,6.3737-11.98795,16.08178-21.53917,9.952-9.78418,44.03812-19.12264,82.70737-13.46335l40.39313,12.05473,1.4319,3.70246c2.10282,5.49,4.62963,11.75344,7.82734,19.20029,13.7988,32.19616,39.81074,48.83548,60.09661,57.1893l7.96245,3.1884-.69265,47.694,25.9203-7.20146L911.962,1497c29.27488-10.76881,99.32494-36.38938,111.15766-39.14138,46.85535-10.92567,76.28857-44.0257,92.5272-68.65077a223.72544,223.72544,0,0,0,17.48883-31.99426l.84951-1.86676,1.61206-1.24244c2.30161-1.77823,4.83-3.791,7.53693-6.03979,24.69029-20.67568,32.40737-52.73672,31.49108-76.07587a88.97013,88.97013,0,0,0-10.49082-37.6753l-3.33283-5.93885.045-2.24725c.40379-12.22246.49231-26.79312-1.09645-37.56348-1.58721-10.7129-5.14369-26.19054-14.04418-39.45354-8.433-12.51288-22.59058-23.67461-42.02693-25.13913l-5.56767-.424-1.56546-5.36887c-5.23376-18.02619-9.30429-36.5012-10.57934-52.72586-1.16323-14.83,4.20564-34.83478,14.00069-56.25126l13.1077-27.77775,4.49451,24.74776a68.43906,68.43906,0,0,0,5.167,16.68435c4.98683,10.72377,15.14063,23.50688,33.19011,28.41606,21.27057,5.782,37.88652-5.61426,44.709-11.25026,8.29792-6.85513,15.14218-15.723,20.55454-24.13275,11.00332-17.15338,20.62132-39.65388,26.16724-62.31125a423.60088,423.60088,0,0,0,8.07428-42.61708l.15686-1.258.55909-1.13993c3.73508-7.76212,7.31484-15.66867,9.75157-22.06566C1273.45946,866.78237,1282.11457,837.60067,1280.88456,806.90319Zm-49.18336,66.45943c-2.839,7.38783-7.35677,16.97166-11.69752,25.67648a395.89476,395.89476,0,0,1-8.22959,45.79927c-9.371,38.12879-32.36389,74.83034-46.22946,71.07352-9.70808-2.66191-11.71928-13.24125-12.50356-20.64461-.89448-8.20784-.67092-18.74214-1.34183-29.556a118.06826,118.06826,0,0,0-5.09865-29.31526l-.47057-1.39774a25.57613,25.57613,0,0,1-15.723,3.4726,37.96461,37.96461,0,0,1-11.65086-3.395,37.96669,37.96669,0,0,1-18.60865,5.97145,24.8232,24.8232,0,0,1-3.04242-.01087c-13.82209,19.83238-51.50826,78.83408-47.68312,127.29994,3.10765,39.56535,19.38976,85.65039,30.10429,112.4,3.28772-9.67391,7.96083-18.64274,16.12518-20.13056,17.78081-3.27537,25.27269,16.03674,27.82279,33.30349,1.49869,10.06372.98308,28.48283.20034,43.80361-.02174.6383-.08844,1.24088-.13356,1.85589,1.11819,1.36512,2.08108,2.59513,2.59514,3.27692a73.20678,73.20678,0,0,1,5.50243,8.40974,52.90179,52.90179,0,0,1,6.3504,22.17592c.62588,15.95753-5.03186,35.338-18.38338,46.52144a172.27421,172.27421,0,0,1-15.63442,11.71927,184.76494,184.76494,0,0,1-18.92082,37.33829c-13.84539,21.00182-36.47945,45.26969-70.25195,53.14207-16.08178,3.74594-57.18931,18.85551-57.18931,18.85551l2.30472-15.15461-33.32522,9.28255.40224-28.60552c-4.94327-.60414-53.99159-4.7197-71.48042-45.47-7.65029-17.8041-11.16017-28.39431-14.73994-38.27944-16.908-5.04273-38.11171-11.38381-60.41032-18.04793-43.30042-7.13624-93.8458.77031-116.59324,23.159-12.8825,12.69148-19.837,24.04268-23.57366,32.09521a58.63519,58.63519,0,0,0-3.50988,9.40369c-.58233,2.08108-1.41016,8.94708-1.41016,8.94708a245.32268,245.32268,0,0,1-25.72-14.38119l.62588.9163s-53.65458-35.35971-103.77753-85.69388c-.89455.75944-1.74406,1.54373-2.57184,2.34821-12.8825,12.693-19.83858,24.0318-23.55036,32.08434a61.049,61.049,0,0,0-3.51143,9.40368c-.56065,2.06866-1.41017,8.958-1.41017,8.958a243.23955,243.23955,0,0,1-28.135-15.95753,220.72489,220.72489,0,0,1-45.08953-40.15707,260.54774,260.54774,0,0,1-27.15187-39.90236c-12.41349,11.55309-32.38563,20.02961-48.75783,25.588-16.59583,5.62513-37.73121,10.05286-37.73121,10.05286a271.7646,271.7646,0,0,0,11.54067-47.71729c1.63225-11.19434,2.03605-32.18373,1.96771-52.68392-7.4484,1.62293-18.27312,2.46158-33.30193.31527-33.392-4.77561-48.91468-17.55872-48.91468-17.55872s27.332-19.83859,40.01263-66.5495c2.57185-9.48289,5.94977-24.69185,9.43785-41.43211-28.00138,17.2217-55.15326,13.17447-55.15326,13.17447s14.18085-42.63107,33.99614-118.76285c19.52487-75.026,71.41364-134.03859,102.546-161.41411,15.03042-13.21174,33.92936-33.53177,49.2051-50.71932,8.96889-10.08236,16.61913-18.98907,21.38232-24.61419-11.29374-5.2788-32.83291-17.94233-54.55068-44.87677-17.73577-22.00819-41.26439-59.28592-46.56493-79.71155a1.89338,1.89338,0,0,1-.045-.6088l-.06678-.0295,1.02812-5.59718c2.39479-12.06094,9.68478-18.15508,20.91329-20.39613a89.78282,89.78282,0,0,1,17.69073-1.26418c6.55229.0497,14.20259.396,22.99126.74391,34.57853,1.41327,100.11079,1.07782,144.61793-4.82065C571.80028,541.17576,648.179,521.1974,648.179,521.1974l.13357.26246a608.91905,608.91905,0,0,1,82.73066-15.59411l1.00638-.10561,3.10919-.365,2.05778-.24072a391.01927,391.01927,0,0,1,52.06892-1.95683c16.84121.51561,38.69254,5.82081,56.09285,10.90392,14.917,4.36716,26.86145,8.62716,30.05917,9.7966,4.361-.63674,21.96323-2.00187,49.78594,11.37761,10.66942,5.20114,36.79317,20.97541,53.18556,31.21308,15.678-2.74578,40.95229-6.57093,51.0175-4.70262,15.11888,2.77219,13.6202,19.59166,12.971,25.09875a74.07961,74.07961,0,0,1-3.176,11.99416,163.36265,163.36265,0,0,1,22.8577,9.51085c12.54705,6.43115,27.17517,16.411,32.36389,30.43966,7.17973,19.2298,7.13469,31.22862,6.70915,35.94211,14.60483,5.10951,33.86258,12.04386,54.68425,20.0234,28.27169,10.8418,44.37358,19.67086,54.90943,30.80308l.02174-.01709s.15686.18482.469.5327a61.9212,61.9212,0,0,1,7.2465,9.52171,155.0146,155.0146,0,0,1,8.65667,13.98361c7.93925,14.594,16.21379,35.15937,17.13163,58.72682C1245.21114,831.8513,1238.47869,855.65015,1231.7012,873.36262Z"/><path class="cls-4" d="M443.5095,609.4802A230.36154,230.36154,0,0,1,376.63542,585.655c10.1538,6.19043,20.44272,12.63712,23.84233,15.45434,14.55979,12.00038,44.46366,25.22455,105.65671,25.84421,7.11139.06213,13.7755.40845,20.084.9396l.87281-.72683v-.01553L539.75017,613.748l14.93867-15.79136C532.77228,605.05247,485.4681,617.5374,443.5095,609.4802Z"/><path class="cls-4" d="M991.8506,1349.77759c-40.99571-1.53286-67.677-17.12231-116.18945-78.12434-13.73357-17.26675-25.92186-29.702-36.36608-38.6708-4.42929-3.80186-8.5433-6.97783-12.32341-9.62888,13.55342,11.463,29.83553,30.19429,43.50077,60.20842,28.135,61.78632,36.5012,74.80393,51.19455,81.26615a52.98886,52.98886,0,0,0,10.98158,3.50212c3.57976.72527,6.79922,1.039,9.573,1.35115,1.65548.18015,3.221.34788,4.62956.56064a41.04455,41.04455,0,0,1,5.01012,1.07316,17.82722,17.82722,0,0,1,10.37744,7.69378,31.17544,31.17544,0,0,1,2.32646,4.66224c.96133-.469,25.31773-21.213,25.31773-21.213s4.0706,6.32865,5.18879,11.19434c1.29827,5.62513.42546,6.90018.6724,7.61613.91474-.716,7.55874-5.55835,11.38226-10.11032,4.04878-4.77561,8.36625-13.71027,8.36625-13.71027s4.96508,7.85063,6.19509,13.4975a54.21114,54.21114,0,0,1,.75944,6.22926l2.50513-1.38686c8.49974-4.82065,18.40816-11.99882,25.49781-21.7069a138.15865,138.15865,0,0,0,13.88887-23.94174C1049.39866,1338.01173,1020.43438,1350.86161,991.8506,1349.77759Z"/><path class="cls-4" d="M944.99526,1261.26494c4.83152,2.7054,9.59471,5.08777,14.33615,7.21233a35.64072,35.64072,0,0,1,.24693-23.53949c3.19772-9.49531,12.90425-44.10646,12.90425-44.10646s1.23-5.70277,4.00375-3.30953a8.7459,8.7459,0,0,1,1.63225,2.40411c-.31217-1.1741-.64762-2.23638-.98308-3.23189-1.99256-6.105-3.95871-9.618-5.19027-13.09527v.0233c-.31217.44728-.69266.96133-1.05142,1.508-.22363.337-.44572.66-.69265,1.01879-1.13994,1.75494-2.34821,3.71178-3.62326,5.8379-3.53317,5.92641-7.56022,13.263-12.25662,21.62614a83.55345,83.55345,0,0,1-29.88057,30.92111A81.30485,81.30485,0,0,0,944.99526,1261.26494Z"/><path class="cls-4" d="M1048.8613,1251.67023a19.33183,19.33183,0,0,0-1.946-1.74562c-2.79548-2.2923-5.636-3.19927-10.042-3.09833a16.64,16.64,0,0,0-10.9148,4.73058,15.721,15.721,0,0,0-2.46,2.84207h0a13.35666,13.35666,0,0,0-3.66674-3.62481c-2.61688-1.82172-6.75574-3.6-12.86231-3.43378a21.13287,21.13287,0,0,0-8.87875,2.61843,3.22954,3.22954,0,0,0-.40224.18948c-.11182.06678-.24538.12269-.33546.191a53.76739,53.76739,0,0,0-11.40556,8.57591,99.33108,99.33108,0,0,1-.87281,10.43335s14.1793-11.5065,24.1545-11.786c12.1448-.32459,16.529,7.05548,16.529,7.05548s4.7197-7.335,13.32978-7.56954c5.4341-.13356,8.54329,1.26263,12.00969,4.83152a13.11472,13.11472,0,0,1,16.55234-5.13436c2.66037,1.14148,9.75,7.61613,9.75,7.61613s8.81352-21.14625,11.49563-28.78413c3.19927-9.11481,5.4574-16.57409,7.582-24.01006,2.50661-8.64425,1.70066-11.32791,3.15423-14.16842a25.50952,25.50952,0,0,1,2.9306,6.54142v-.01087a.3221.3221,0,0,0-.0233-.15686c-.1553-1.02812-.31216-2.01275-.49076-2.95234v-.05591c-1.09645-5.83789-2.50661-9.81834-3.89348-12.3234-.06523-.11182-.11027-.21277-.17852-.32459-.13364-.21277-.24546-.424-.379-.60413-.06834-.101-.13512-.22364-.2019-.31217v-.02329a34.58315,34.58315,0,0,0-1.58876,3.61238c-1.02812,2.63862-2.168,6.05066-3.37632,10.3557-.98463,3.48814-2.34976,7.47014-3.87019,11.48476-1.74407,4.552-3.66674,9.1583-5.45584,13.2397-3.24276,7.41579-11.98795,25.33016-11.98795,25.33016h-.02322a25.49928,25.49928,0,0,0-3.39969-3.23189,9.87614,9.87614,0,0,0-2.30317-1.44278,13.91157,13.91157,0,0,0-4.67466-1.14148,13.05774,13.05774,0,0,0-11.85439,6.27429Z"/><path class="cls-4" d="M1192.29278,790.31357c-8.253,4.54576-9.952,8.08049-10.4443,17.60687-.3572,6.38611-10.3557,34.00235-10.3557,34.00235s17.49039-23.29411,17.89263-30.68039c.51406-9.52793,1.85589-13.71028,10.46752-17.60842,5.27879-2.415,11.45214-6.6579,9.37107-21.4025C1207.16776,773.76278,1207.14447,782.13835,1192.29278,790.31357Z"/><path class="cls-4" d="M1181.84848,964.35859c-2.0577-4.6405,5.2788-24.26632-.38041-51.53156-5.68112-27.2404-10.73472-24.37193-10.73472-24.37193s-.045.028-.09.06057l-11.27208,3.909s-9.52792,8.28083-19.63669,9.04027c-7.2698.56065-14.64986-6.96074-14.64986-6.96074s-9.618,7.627-16.95459,7.91742c-7.87238.31993-18.62876-7.72174-18.62876-7.72174s-11.54068,8.84614-19.84014,7.90189c-7.26825-.85107-15.94511-9.70808-15.94511-9.70808s-9.52948,10.06994-17.69228,11.49564c-10.087,1.74562-24.71515-8.59921-24.71515-8.59921s-.58083,4.76474-1.72232,12.22867c0,0,0,.01242.04659.02795.64762.45971,8.54174,5.8876,16.57254,7.96246a19.47052,19.47052,0,0,0,8.09609.61035c8.11769-1.4257,17.69221-11.49719,17.69221-11.49719a46.84572,46.84572,0,0,0,11.11513,8.14106,15.93978,15.93978,0,0,0,4.8316,1.54994c7.24643.84951,16.99644-5.83789,19.30116-7.51052.33545-.24073.51406-.3805.51406-.3805s10.803,8.02458,18.67535,7.72174a22.20626,22.20626,0,0,0,8.54485-2.63707,55.69425,55.69425,0,0,0,8.36314-5.28035h0a29.43088,29.43088,0,0,0,5.61426,4.30659,17.131,17.131,0,0,0,7.672,2.67279,12.04008,12.04008,0,0,0,1.36357-.01709c10.13206-.77186,19.66-9.05269,19.66-9.05269l5.83789,8.79644a51.90018,51.90018,0,0,1,4.15913,8.93311c2.86374,7.62856,6.30839,20.15231,7.38154,38.05114.469,7.38628.5358,14.53184.80448,20.94591a134.89245,134.89245,0,0,0,11.51893-22.49585C1185.85223,962.41884,1183.28039,967.51748,1181.84848,964.35859Z"/><path class="cls-4" d="M1188.31225,956.44117v-.028l.1786-.53114s-.13356.44262-.424,1.13994C1188.1554,956.82166,1188.22381,956.64151,1188.31225,956.44117Z"/><path class="cls-4" d="M1188.06687,957.022c-.22364.62121-.47057,1.22535-.716,1.845C1187.64134,958.15728,1187.88827,957.52053,1188.06687,957.022Z"/><path class="cls-4" d="M1006.79089,924.71558c1.56547-8.17523,2.48332-14.45418,2.73025-16.19825C1008.80519,913.09726,1007.91063,918.6323,1006.79089,924.71558Z"/><path class="cls-4" d="M954.97046,927.3542c.02174.028.06678.07765.06678.10716a14.89714,14.89714,0,0,0-2.55-2.66813c2.39316,7.15643,4.78641,14.98533,6.26335,21.55,5.4574,24.37193,5.54592,43.28956,5.36732,63.93263-.02174,1.39774-.045,2.79548-.045,4.19321a139.986,139.986,0,0,0,19.36794-25.53049v.0233c-2.05623,2.48176-7.02124,8.00594-9.39281,6.4296-3.04242-2.02517,3.60151-14.33149.96133-40.85749-1.81085-18.20013-6.70915-40.66181-9.61638-52.96192-2.05785.21277-4.2492.424-6.48558.6383-3.44465.3013-7.06791.60259-10.82472.87592.20034,1.09179.40069,2.15407.60258,3.17132A190.65517,190.65517,0,0,0,954.97046,927.3542Zm4.0706,5.88293c-.671.03262-1.65561-1.27039-2.95241-4.35007C957.38545,931.96674,958.37008,933.26975,959.04106,933.23713Z"/><path class="cls-4" d="M897.69108,924.5199a19.23188,19.23188,0,0,0,12.86076-5.7649,15.6852,15.6852,0,0,0,2.16961-2.533v-.01708a45.0963,45.0963,0,0,0,7.35832,7.509c0,.01708.02174.01708.02174.01708.31372.24072.62743.47057.91785.68179.02174.01708.045.028.06678.045.29042.19569.58084.39137.87281.57618.02175.01709.04349.045.06678.06057.29042.1786.58091.34788.84952.49853.02174.01553.045.03261.06678.05125q.43563.24228.87281.469h.0233a15.87189,15.87189,0,0,0,2.59358,1.0452,1.22151,1.22151,0,0,1,.13356.045c.22364.06212.44728.12269.67092.16773a2.14912,2.14912,0,0,0,.26867.06056c.1786.045.3572.07455.51406.10716a2.04775,2.04775,0,0,0,.31372.05591c.15685.01553.31371.0497.47064.06057a2.19,2.19,0,0,0,.33539.03417c.13356.01242.26712.028.40068.045a2.82571,2.82571,0,0,1,.3805.01708h.73925a3.02888,3.02888,0,0,0,.38056-.01708,2.68009,2.68009,0,0,0,.3572-.01709c.11175,0,.22357-.01553.35869-.028a2.50569,2.50569,0,0,1,.3572-.03417c.11182-.01087.24538-.045.3572-.06057.11182-.01087.22363-.028.33545-.045.13512-.028.24694-.04349.3805-.073a2.69589,2.69589,0,0,0,.31216-.06057c.13519-.03416.27023-.06212.3805-.09007.11337-.01709.20189-.05125.292-.06057.1786-.045.33546-.09629.51406-.13978.04348-.01242.11182-.0295.15685-.045.02175,0,.02175-.01088.02175-.01088-6.7309-9.02474-7.33658-16.62378-4.58452-22.84062-21.27056,1.19429-44.17331,1.95528-62.01934,2.40877a45.45857,45.45857,0,0,0,7.29006,9.20334A29.7846,29.7846,0,0,0,897.69108,924.5199Z"/><path class="cls-2" d="M1046.31276,1194.71388c-12.39174-17.04155-9.32758-38.33379-21.91959-78.26722-12.59216-39.92411-34.75565-56.16119-49.80776-59.39307a34.51515,34.51515,0,0,0-21.42735,2.48332c2.1696,2.40256,4.18235,4.79735,5.97145,7.19059,17.714,23.84079,19.92867,51.71948,19.92867,51.71948a245.87643,245.87643,0,0,0-28.1365-40.81711c-16.25883-18.7763-37.30568-26.63781-75.5525-25.13912-29.07454,1.12906-62.46655,19.93953-76.84774,28.9301,3.78011,5.34558,8.051,10.81385,12.794,16.47315,18.29486-.87282,60.78919-.44728,78.23454,20.56541,22.54554,27.141,20.55461,65.79938,33.48208,90.92763,1.05141,2.05779,2.12456,3.95871,3.221,5.74782a65.88494,65.88494,0,0,0,14.26937-17.57891c6.61908-11.83264,12.00969-21.66186,16.54924-28.57291,3.95871-6.02736,9.37262-13.44159,16.57409-13.878,10.06528-.60413,18.09452,21.53762,24.39988,46.231,2.036,8.00595,5.70433,15.84571,6.37532,20.23,2.57176-.75012,2.10275-.761,5.47906-.62743a38.75691,38.75691,0,0,1,13.15118,2.89643c.78281-.29042,1.72233-.57,2.7287-.89456a47.05209,47.05209,0,0,1,12.502-2.1696,34.754,34.754,0,0,1,10.78123,1.32009,27.71683,27.71683,0,0,1,9.48289-3.29867c.47057-.06833.89455-.11337,1.32009-.15686l-2.66192-9.14743C1054.65416,1206.11012,1051.09769,1201.33606,1046.31276,1194.71388Z"/><path class="cls-2" d="M1175.58506,730.28375c-14.84866-8.63337-30.28281-14.667-80.60455-30.45675-12.63712-3.95871-22.38869-6.96074-30.05917-9.52171a132.80774,132.80774,0,0,1-18.43-7.23564c-10.042-5.17163-40.61677-43.34546-40.61677-43.34546a54.54309,54.54309,0,0,1,7.78386-1.71612,35.63583,35.63583,0,0,1,13.50838.688,27.21731,27.21731,0,0,1,11.69753,6.9623l15.56616-9.20955a101.76187,101.76187,0,0,0-12.21159-5.51952c-12.48026-4.83618-24.66855-8.93467-35.67342-13.00054-11.0934-4.10935-21.51588-8.35227-29.94735-13.4975-7.87239-4.79115-28.36015-16.99807-46.81186-27.99518a68.76368,68.76368,0,0,0,8.79023,12.45231c14.55979,16.66727,24.51169,27.2963,24.51169,27.2963s-31.93835-6.77748-48.10865-25.40159c-11.11514-12.86076-31.80324-37.35693-57.45642-38.78262-25.69978-1.40861-74.41094,5.35645-74.41094,5.35645s7.69371-12.93841,33.77087-20.26257c2.41654-.68334,4.698-1.30456,6.84427-1.87918l-21.33572-1.82172c-17.64724.74235-39.14138,3.03464-56.47335,9.08531-36.07722,12.58587-57.70491,25.81-57.70491,25.81a101.19962,101.19962,0,0,1,11.51893-23.524c.96133-1.39308,1.83414-2.71162,2.63862-3.9525l-23.95415,4.73057c-9.30429,4.19943-20.15075,9.41611-32.49746,15.90783-48.01857,25.18883-64.99334,55.00883-64.99334,55.00883s3.86708-14.96979,17.5789-40.26422a117.69376,117.69376,0,0,1,7.62545-12.28458c-29.92561,6.793-71.97111,14.26937-127.08095,19.441-23.4401,2.19755-48.51244,1.33717-70.20692-.09008-15.87988-1.05141-29.90231-2.3979-40.05612-3.002a234.27683,234.27683,0,0,0,67.0061,16.08644c57.79343,5.18872,129.61086-9.7174,129.61086-9.7174L539.75017,613.748l-12.65893,13.40277v.01553l-.716.74391c66.56037,5.65774,89.77527,34.56611,90.73661,35.779l6.82252,8.812s-43.05505,2.96942-71.92769,10.91479a320.79016,320.79016,0,0,0-52.6715,20.11348c-7.98575,8.023-83.44817,83.82556-120.50691,119.05793-18.76538,17.832-30.84191,39.7952-38.24527,57.47972-1.81235,4.30659-3.31109,8.343-4.58614,11.98329,2.34976-1.67263,4.78648-3.249,7.29154-4.69175,18.29647-10.55138,38.20023-17.69694,53.476-22.21474a283.00647,283.00647,0,0,1,27.91286-6.73711S398.77872,885.6472,389.139,895.478c-19.32453,19.65377-40.45985,49.68033-48.04187,91.1901-4.96509,27.26369-8.92379,54.64076-12.8825,77.84479-1.67885,9.78418-3.37788,18.94248-5.18873,27.11771l99.415-102.08937s-11.96615,52.1124-31.738,104.79632a351.6861,351.6861,0,0,0-17.77925,67.61179c-1.185,7.436-1.92422,13.732-2.415,18.50763l40.34654-21.46a193.35666,193.35666,0,0,0,4.13731,22.63407,164.17235,164.17235,0,0,0,14.64986,36.83665c7.49344,13.57516,14.26943,21.75039,19.03411,26.49183,1.56392,1.53131,2.929,2.71628,4.0022,3.60151,5.2788-5.70433,18.09452-18.12713,44.66555-27.91286,14.38119-5.28967,29.81224-8.48739,44.77582-10.38831-13.9774-11.77674-36.65806-33.64982-50.77057-61.40582-25.04905-49.2284-14.17929-89.96631-14.17929-89.96631s33.0115,67.73448,87.15839,105.83531c56.989,40.07942,175.88537,74.08488,242.98309,91.0845-13.37475-22.9804-31.98339-56.59759-31.98339-56.59759l23.7973,7.25737c1.185.36963,12.86076,4.19477,27.84608,16.88625,3.78011,2.651,7.89412,5.827,12.32341,9.62888-6.62063-11.272-19.034-29.64451-41.53462-56.03695-.60258-.02329-1.22846-.03261-1.85589-.045-5.01012.87126-38.87114,5.53661-83.17794-19.40218-48.04187-27.05248-60.65725-115.4735-51.30637-183.18623a272.28221,272.28221,0,0,1,5.9932-30.48471c-4.47277,2.40877-13.0844,7.5975-29.43323,18.75767a184.59573,184.59573,0,0,0-20.35271,16.33337c-.15686,1.53285-.22364,2.38237-.22364,2.38237s-3.44465,3.075-15.41086,14.90612c-11.988,11.80935-20.53124,26.74963-20.53124,26.74963s-.51406-46.05087,39.05129-129.6823a215.89752,215.89752,0,0,1,36.27756-53.79435c-8.09757,3.91367-20.86825,9.78418-39.14137,17.41118C582.02086,871.78628,534.6732,916.646,534.6732,916.646s4.13731-59.69436,35.51663-110.31895c31.356-50.62458,87.65221-75.80254,87.65221-75.80254s-19.43635-3.94162-38.64906-2.64949c-19.18942,1.28592-40.72859,17.18133-40.72859,17.18133l.64917-1.21293c-.78273,1.02812-1.18652,1.64934-1.18652,1.64934s15.254-50.519,75.37389-51.822c42.20405-.92251,96.12723,36.85374,111.67172,41.19295C780.472,739.1858,808.228,732.9845,808.228,732.9845a4.93146,4.93146,0,0,0-.31365.4364,53.04083,53.04083,0,0,1-8.18454,27.34756c-8.58834,13.30182-29.34484,23.48979-29.34484,23.48979s.91785,1.7332,23.7973,2.97564a93.68066,93.68066,0,0,0,27.01831-2.61222,523.77816,523.77816,0,0,0,52.55967-20.89621c25.83179-12.21159,46.14095-39.70514,89.28452-41.55481.24538-.03417.44728-.045.671-.06212a56.73848,56.73848,0,0,1,16.237,1.33717c36.054,7.45927,58.03882,43.00845,58.03882,43.00845s-2.07953-1.39774-5.65774-3.51609c15.18566,16.80239,49.82942,46.98425,49.82942,46.98425s-18.22808-23.32672-27.06024-42.05954c-8.79023-18.72972-9.28255-40.34033-9.28255-40.34033s2.50514,3.53318,16.12534,22.17437a83.8958,83.8958,0,0,0,8.902,10.16,1.257,1.257,0,0,0,.09015-.27333c.29035-.879.469-1.36513.469-1.36513s.02174.045.045.09008c.24538-.57618.514-1.15236.82777-1.72854,9.92861-18.50142,30.54993-20.06223,47.84-21.15868,19.70348-1.24088,46.63326,10.1771,59.47073,8.99834a77.43905,77.43905,0,0,0,11.58571-1.991C1186.99217,737.63586,1181.75841,733.907,1175.58506,730.28375ZM963.26682,678.0937c-1.00637,10.483-9.39281,32.56423-58.23916,25.01022a123.04713,123.04713,0,0,1-25.42954-6.87222c-11.49564,11.07787-30.3294,19.44722-52.291,21.828-34.06292,3.6978-63.96679-8.23424-71.57049-27.31339a69.15246,69.15246,0,0,1-20.57784,6.88309c-25.45284,3.68538-34.77887-6.09414-34.77887-6.09414s7.11294,2.27055,23.70877-4.17148c16.61757-6.43116,16.03525-13.68232,16.03525-13.68232a110.54687,110.54687,0,0,1-42.53788-4.65758,133.342,133.342,0,0,1-36.45778-18.50142s38.62576,12.4958,75.90969,3.8236l9.19247-2.30938-6.79922-1.00016c-25.296-4.56284-34.17474-12.13393-36.32105-14.35945-27.8026-11.72393-37.41905-30.95372-37.41905-30.95372s33.70572,10.90237,54.14689,13.07353c20.44272,2.168,71.10154-25.33016,115.38653-27.84609,0,0,52.62646,43.07058,90.53627,68.73619,12.05472,8.15814,26.83815-6.2246,29.455-8.93622a8.47131,8.47131,0,0,0,.2019-.92872S964.69873,662.80553,963.26682,678.0937Z"/><path class="cls-5" d="M873.76022,763.72546a523.77816,523.77816,0,0,1-52.55967,20.89621c-1.946.65383-3.04086,1.01724-3.04086,1.01724s47.16906-2.77374,76.40046-17.30557c29.23295-14.54426,39.07311-27.40347,71.12321-28.10234,24.78037-.542,54.4606,15.42639,66.65045,22.70706,3.57821,2.11835,5.65774,3.51609,5.65774,3.51609s-21.98482-35.54918-58.03882-43.00845a64.91751,64.91751,0,0,0-14.64987-1.38221c-.75943.02951-1.49868.06212-2.25812.10716C919.90117,724.02032,899.592,751.51387,873.76022,763.72546Z"/><path class="cls-5" d="M974.38351,767.60651c-44.68574.97221-65.30861,19.47518-91.76627,31.547-52.76158,24.11567-98.94756,15.77272-98.94756,15.77272s47.68467,19.68794,107.11036.18015c31.02206-10.1771,52.00065-25.61436,84.05075-26.32565,32.07347-.69732,77.69881,30.89471,77.69881,30.89471S1019.07081,766.62188,974.38351,767.60651Z"/><path class="cls-5" d="M993.43937,820.70354c-28.00139.62588-64.45755,20.34178-98.9693,24.13121-24.44492,2.68521-58.12889-1.77669-58.12889-1.77669s30.64156,12.999,71.482,12.106c40.88389-.89455,59.60436-12.68216,92.86273-15.181,33.30193-2.48953,49.42874-2.83586,49.42874-2.83586S1021.46405,820.11494,993.43937,820.70354Z"/><path class="cls-5" d="M708.25385,1112.01738c-66.65045-106.36024,8.13957-273.14166,8.13957-273.14166s-33.05506,42.5736-48.98,104.95162a272.28221,272.28221,0,0,0-5.9932,30.48471c-9.35088,67.71273,3.2645,156.13375,51.30637,183.18623,44.3068,24.93879,78.16782,20.27344,83.17794,19.40218.42554-.0792.67092-.13356.67092-.13356S747.28185,1174.30533,708.25385,1112.01738Z"/><path class="cls-5" d="M656.79062,839.47985a215.89752,215.89752,0,0,0-36.27756,53.79435c-39.56535,83.63143-39.05129,129.6823-39.05129,129.6823s8.54329-14.94028,20.53124-26.74963c11.96621-11.83109,15.41086-14.90612,15.41086-14.90612s.06678-.84952.22364-2.38237a367.70694,367.70694,0,0,1,20.4862-85.51994c16.03674-43.17929,52.291-83.08476,52.291-83.08476S674.95037,819.71891,656.79062,839.47985Z"/><path class="cls-5" d="M642.94523,712.12866C686.53608,711.172,718.945,732.604,718.945,732.604a100.44856,100.44856,0,0,0-39.00781,13.41986,78.97257,78.97257,0,0,0-28.604,29.792S674.63666,748.97,725.3187,746.16363c27.68923-1.56547,36.72484,4.79269,53.65613,2.561,18.98752-2.51748,27.37551-13.072,28.93949-15.3037a4.93146,4.93146,0,0,1,.31365-.4364s-27.75594,6.2013-43.25532,1.87918c-15.54449-4.33921-69.46767-42.11546-111.67172-41.19295-60.11989,1.303-75.37389,51.822-75.37389,51.822s.40379-.62122,1.18652-1.64934A83.51676,83.51676,0,0,1,642.94523,712.12866Z"/><path class="cls-5" d="M1244.27154,808.346c-.91784-23.56745-9.19238-44.13286-17.13163-58.72682a155.0146,155.0146,0,0,0-8.65667-13.98361,61.9212,61.9212,0,0,0-7.2465-9.52171c-.31216-.34788-.469-.5327-.469-.5327l-.02174.01709c-10.53585-11.13222-26.63774-19.96128-54.90943-30.80308-20.82167-7.97954-40.07942-14.91389-54.68425-20.0234.42554-4.71349.47058-16.71231-6.70915-35.94211-5.18872-14.02865-19.81684-24.00851-32.36389-30.43966a163.36265,163.36265,0,0,0-22.8577-9.51085,74.07961,74.07961,0,0,0,3.176-11.99416c.64918-5.50709,2.14786-22.32656-12.971-25.09875-10.06521-1.86831-35.33952,1.95684-51.0175,4.70262-16.39239-10.23767-42.51614-26.01194-53.18556-31.21308-27.82271-13.37948-45.425-12.01435-49.78594-11.37761-3.19772-1.16944-15.14218-5.42944-30.05917-9.7966-17.40031-5.08311-39.25164-10.38831-56.09285-10.90392a391.01927,391.01927,0,0,0-52.06892,1.95683l-2.05778.24072-3.10919.365-1.00638.10561a608.91905,608.91905,0,0,0-82.73066,15.59411l-.13357-.26246s-76.37871,19.97836-120.95419,25.87682c-44.50714,5.89847-110.0394,6.23392-144.61793,4.82065-8.78867-.34788-16.439-.69421-22.99126-.74391a89.78282,89.78282,0,0,0-17.69073,1.26418c-11.22851,2.24105-18.5185,8.33519-20.91329,20.39613l-1.02812,5.59718.06678.0295a1.89338,1.89338,0,0,0,.045.6088c5.30054,20.42563,28.82916,57.70336,46.56493,79.71155,21.71777,26.93444,43.25694,39.598,54.55068,44.87677-4.76319,5.62512-12.41343,14.53183-21.38232,24.61419-15.27574,17.18755-34.17468,37.50758-49.2051,50.71932-31.13232,27.37552-83.02109,86.38809-102.546,161.41411-19.81529,76.13178-33.99614,118.76285-33.99614,118.76285s27.15188,4.04723,55.15326-13.17447c-3.48808,16.74026-6.866,31.94922-9.43785,41.43211-12.6806,46.71091-40.01263,66.5495-40.01263,66.5495s15.52273,12.78311,48.91468,17.55872c15.02881,2.14631,25.85353,1.30766,33.30193-.31527.06834,20.50019-.33546,41.48958-1.96771,52.68392a271.7646,271.7646,0,0,1-11.54067,47.71729s21.13538-4.42773,37.73121-10.05286c16.3722-5.55834,36.34434-14.03486,48.75783-25.588a260.54774,260.54774,0,0,0,27.15187,39.90236,220.72489,220.72489,0,0,0,45.08953,40.15707,243.23955,243.23955,0,0,0,28.135,15.95753s.84952-6.8893,1.41017-8.958a61.049,61.049,0,0,1,3.51143-9.40368c3.71178-8.05254,10.66786-19.39131,23.55036-32.08434.82778-.80448,1.67729-1.58877,2.57184-2.34821,50.123,50.33417,103.77753,85.69388,103.77753,85.69388l-.62588-.9163a245.32268,245.32268,0,0,0,25.72,14.38119s.82783-6.866,1.41016-8.94708a58.63519,58.63519,0,0,1,3.50988-9.40369c3.73662-8.05253,10.69116-19.40373,23.57366-32.09521,22.74744-22.38869,73.29282-30.29524,116.59324-23.159,22.29861,6.66412,43.50233,13.0052,60.41032,18.04793,3.57977,9.88513,7.08965,20.47534,14.73994,38.27944,17.48883,40.75033,66.53715,44.86589,71.48042,45.47l-.40224,28.60552,33.32522-9.28255-2.30472,15.15461s41.10753-15.10957,57.18931-18.85551c33.7725-7.87238,56.40656-32.14025,70.25195-53.14207a184.76494,184.76494,0,0,0,18.92082-37.33829,172.27421,172.27421,0,0,0,15.63442-11.71927c13.35152-11.18348,19.00926-30.56391,18.38338-46.52144a52.90179,52.90179,0,0,0-6.3504-22.17592,73.20678,73.20678,0,0,0-5.50243-8.40974c-.51406-.68179-1.47695-1.9118-2.59514-3.27692.04512-.615.11182-1.21759.13356-1.85589.78274-15.32078,1.29835-33.73989-.20034-43.80361-2.5501-17.26675-10.042-36.57886-27.82279-33.30349-8.16435,1.48782-12.83746,10.45665-16.12518,20.13056-10.71453-26.74963-26.99664-72.83467-30.10429-112.4-3.82514-48.46586,33.861-107.46756,47.68312-127.29994a24.8232,24.8232,0,0,0,3.04242.01087,37.96669,37.96669,0,0,0,18.60865-5.97145,37.96461,37.96461,0,0,0,11.65086,3.395,25.57613,25.57613,0,0,0,15.723-3.4726l.47057,1.39774a118.06826,118.06826,0,0,1,5.09865,29.31526c.67091,10.81385.44735,21.34815,1.34183,29.556.78428,7.40336,2.79548,17.9827,12.50356,20.64461,13.86557,3.75682,36.85847-32.94473,46.22946-71.07352a395.89476,395.89476,0,0,0,8.22959-45.79927c4.34075-8.70482,8.85856-18.28865,11.69752-25.67648C1238.47869,855.65015,1245.21114,831.8513,1244.27154,808.346Zm-153.67528-32.50366a11.85543,11.85543,0,0,1-5.14523-8.76694c-.82622-14.80051,26.34747-19.91158,42.09371-19.1568a78.09174,78.09174,0,0,1,9.72827,1.21448c15.05366,2.68366,33.66068,8.70637,44.14994,7.73882,12.23488-1.10732,26.3241-6.20752,27.756-6.72157l-.29042-.80448.42561.74235s-12.52538,14.62192-22.746,15.54442c-12.9058,1.185-38.135-8.18454-53.90151-8.94553C1116.92036,755.93228,1089.74527,761.02626,1090.59626,775.84231ZM1199.85293,793.634c-8.61163,3.89814-9.95346,8.08049-10.46752,17.60842-.40224,7.38628-17.89263,30.68039-17.89263,30.68039s9.9985-27.61624,10.3557-34.00235c.49232-9.52638,2.19135-13.06111,10.4443-17.60687,14.85169-8.17522,14.875-16.55079,16.93122-18.08209C1211.30507,786.97608,1205.13172,791.219,1199.85293,793.634Zm.045,43.28335c1.49714-2.54855,2.884-4.89675,3.93542-7.172a64.42294,64.42294,0,0,0,3.06415-8.14727,55.55621,55.55621,0,0,1,5.3021-3.30488c2.01274-1.15081,4.159-2.41033,6.26195-3.791-.24546,17.86467-3.86871,31.83275-7.89575,41.85765a86.37767,86.37767,0,0,0-20.46447-8.11311A48.357,48.357,0,0,0,1199.898,836.91733ZM1093.88406,1303.837c-6.821,8.22026-23.88738,13.409-23.88738,13.409s-.22356-.01087-3.4431,7.78231c-.64917,1.6105-1.41016,3.322-2.21464,5.11106a138.15865,138.15865,0,0,1-13.88887,23.94174c-7.08965,9.70808-16.99807,16.88625-25.49781,21.7069l-2.50513,1.38686a54.21114,54.21114,0,0,0-.75944-6.22926c-1.23-5.64687-6.19509-13.4975-6.19509-13.4975s-4.31747,8.93466-8.36625,13.71027c-3.82352,4.552-10.46752,9.39437-11.38226,10.11032-.24694-.716.62587-1.991-.6724-7.61613-1.11819-4.86569-5.18879-11.19434-5.18879-11.19434s-24.3564,20.744-25.31773,21.213a31.17544,31.17544,0,0,0-2.32646-4.66224,17.82722,17.82722,0,0,0-10.37744-7.69378,41.04455,41.04455,0,0,0-5.01012-1.07316c-1.40861-.21276-2.97408-.38049-4.62956-.56064-2.77381-.31217-5.99327-.62588-9.573-1.35115a52.98886,52.98886,0,0,1-10.98158-3.50212c-14.69335-6.46222-23.0596-19.47983-51.19455-81.26615-13.66524-30.01413-29.94735-48.7454-43.50077-60.20842-14.98532-12.69148-26.66111-16.51662-27.84608-16.88625l-23.7973-7.25737s18.60864,33.61719,31.98339,56.59759c-67.09772-16.99962-185.99413-51.00508-242.98309-91.0845-54.14689-38.10083-87.15839-105.83531-87.15839-105.83531s-10.86976,40.73791,14.17929,89.96631c14.11251,27.756,36.79317,49.62908,50.77057,61.40582-14.96358,1.90092-30.39463,5.09864-44.77582,10.38831-26.571,9.78573-39.38675,22.20853-44.66555,27.91286-1.07316-.88523-2.43828-2.0702-4.0022-3.60151-4.76468-4.74144-11.54067-12.91667-19.03411-26.49183a164.17235,164.17235,0,0,1-14.64986-36.83665,193.35666,193.35666,0,0,1-4.13731-22.63407l-40.34654,21.46c.49076-4.77562,1.23-11.07166,2.415-18.50763a351.6861,351.6861,0,0,1,17.77925-67.61179c19.77187-52.68392,31.738-104.79632,31.738-104.79632l-99.415,102.08937c1.81085-8.17523,3.50988-17.33353,5.18873-27.11771,3.95871-23.204,7.91741-50.5811,12.8825-77.84479,7.582-41.50977,28.71734-71.53633,48.04187-91.1901,9.63974-9.83077,35.53831-37.07117,35.53831-37.07117a283.00647,283.00647,0,0,0-27.91286,6.73711c-15.27575,4.5178-35.17951,11.66336-53.476,22.21474-2.50506,1.44278-4.94178,3.01912-7.29154,4.69175,1.275-3.64034,2.77379-7.6767,4.58614-11.98329,7.40336-17.68452,19.47989-39.64767,38.24527-57.47972,37.05874-35.23237,112.52116-111.0349,120.50691-119.05793a320.79016,320.79016,0,0,1,52.6715-20.11348c28.87264-7.94537,71.92769-10.91479,71.92769-10.91479l-6.82252-8.812c-.96134-1.21292-24.17624-30.12129-90.73661-35.779a.4919.4919,0,0,0-.15686-.01708c-6.30847-.53115-12.97258-.87747-20.084-.9396-61.193-.61966-91.09692-13.84383-105.65671-25.84421-3.39961-2.81722-13.68853-9.26391-23.84233-15.45434-3.13094-1.87763-6.21839-3.74594-9.12569-5.47293q.63831.02564,1.2766.07765c10.15381.60414,24.17624,1.95063,40.05612,3.002,21.69448,1.42725,46.76682,2.28763,70.20692.09008,55.10984-5.17164,97.15534-12.648,127.08095-19.441a117.69376,117.69376,0,0,0-7.62545,12.28458c-13.71182,25.29443-17.5789,40.26422-17.5789,40.26422s16.97477-29.82,64.99334-55.00883c12.34671-6.49172,23.19317-11.7084,32.49746-15.90783l23.95415-4.73057c-.80448,1.24088-1.67729,2.55942-2.63862,3.9525a101.19962,101.19962,0,0,0-11.51893,23.524s21.62769-13.22417,57.70491-25.81c17.332-6.05067,38.82611-8.343,56.47335-9.08531l21.33572,1.82172c-2.14624.57462-4.42773,1.19584-6.84427,1.87918-26.07716,7.32416-33.77087,20.26257-33.77087,20.26257s48.71116-6.76506,74.41094-5.35645c25.65318,1.42569,46.34128,25.92186,57.45642,38.78262,16.1703,18.62411,48.10865,25.40159,48.10865,25.40159s-9.9519-10.629-24.51169-27.2963a68.76368,68.76368,0,0,1-8.79023-12.45231c18.45171,10.99711,38.93947,23.204,46.81186,27.99518,8.43147,5.14523,18.85395,9.38815,29.94735,13.4975,11.00487,4.06587,23.19316,8.16436,35.67342,13.00054a101.76187,101.76187,0,0,1,12.21159,5.51952,29.15323,29.15323,0,0,1,7.87394,5.886,20.11752,20.11752,0,0,1,3.26449,5.09554c.62588,1.31854,1.20827,2.70075,1.81085,4.13731a43.60734,43.60734,0,0,1-4.49451.716,45.06369,45.06369,0,0,0-14.785,4.7461c-1.11664-1.59342-2.30161-3.25829-3.55492-4.91539a61.48465,61.48465,0,0,0-4.58458-5.36732c-.35876-.37894-.716-.74391-1.09645-1.08868a27.21731,27.21731,0,0,0-11.69753-6.9623,35.63583,35.63583,0,0,0-13.50838-.688,54.54309,54.54309,0,0,0-7.78386,1.71612s30.57479,38.17383,40.61677,43.34546a132.80774,132.80774,0,0,0,18.43,7.23564c7.67048,2.561,17.422,5.563,30.05917,9.52171,50.32174,15.7898,65.75589,21.82338,80.60455,30.45675,6.17335,3.62325,11.40711,7.35211,15.591,12.14481a77.43905,77.43905,0,0,1-11.58571,1.991c-12.83747,1.17876-39.76725-10.23922-59.47073-8.99834-17.29,1.09645-37.91136,2.65726-47.84,21.15868-.31372.57618-.58239,1.15236-.82777,1.72854-.0233-.045-.045-.09008-.045-.09008s-.1786.4861-.469,1.36513a1.257,1.257,0,0,1-.09015.27333,24.94867,24.94867,0,0,0-1.32009,5.70433c-1.11819,6.7309-1.09644,16.66727,6.30692,23.32673,30.26106,27.1643,52.73983,26.64247,65.599,35.23081,6.73245,4.51936,7.9175,12.252,7.53693,18.576-7.20147-.2578-15.03037-.24072-23.5954.09474-20.84489.8169-50.18818,6.17335-79.84667,12.17742-29.38825,5.928-59.06693,12.48026-80.91826,15.75718-43.59085,6.53677-103.93438-.19568-145.51248,17.90971-21.76126,9.47823-46.25277,31.6526-61.70711,73.723-17.93766,48.83548-12.56879,85.15653.64917,112.824,6.5523,13.76619,15.00707,25.27425,23.28324,35.04755,8.20784,9.663,16.30386,17.669,22.38713,24.55674,15.67954,17.73732,35.69517,44.28506,57.14582,73.83017,11.58416,15.94666,23.57366,32.76613,35.515,49.5623,35.09258,49.362,109.68375,60.20843,160.81152,49.39458a178.86462,178.86462,0,0,0,41.42124-13.78793A25.21281,25.21281,0,0,1,1093.88406,1303.837Zm-170.852-94.44995c-12.92747-25.12825-10.93654-63.78663-33.48208-90.92763-17.44535-21.01269-59.93968-21.43823-78.23454-20.56541-4.74307-5.6593-9.01394-11.12757-12.794-16.47315,14.38119-8.99057,47.7732-27.801,76.84774-28.9301,38.24682-1.49869,59.29367,6.36282,75.5525,25.13912a245.87643,245.87643,0,0,1,28.1365,40.81711s-2.21464-27.87869-19.92867-51.71948c-1.7891-2.39324-3.80185-4.788-5.97145-7.19059a34.51515,34.51515,0,0,1,21.42735-2.48332c15.05211,3.23188,37.2156,19.469,49.80776,59.39307,12.592,39.93343,9.52785,61.22567,21.91959,78.26722,4.78493,6.62218,8.3414,11.39624,10.8915,14.77411l2.66192,9.14743c-.42554.04349-.84952.08853-1.32009.15686a27.71683,27.71683,0,0,0-9.48289,3.29867,34.754,34.754,0,0,0-10.78123-1.32009,47.05209,47.05209,0,0,0-12.502,2.1696c-1.00637.32459-1.94589.60414-2.7287.89456a38.75691,38.75691,0,0,0-13.15118-2.89643c-3.37631-.13356-2.9073-.12269-5.47906.62743-.671-4.38425-4.33928-12.224-6.37532-20.23-6.30536-24.6934-14.3346-46.83515-24.39988-46.231-7.20147.43641-12.61538,7.85064-16.57409,13.878-4.53955,6.911-9.93016,16.74027-16.54924,28.57291a65.88494,65.88494,0,0,1-14.26937,17.57891C925.15667,1213.34575,924.08352,1211.44483,923.03211,1209.387Zm160.07227,16.48246c1.7891-4.09227,3.71177-8.68773,5.45584-13.2397,1.52043-4.01462,2.88556-7.99662,3.87019-11.48476a106.34441,106.34441,0,0,1,3.37632-10.3557,34.58315,34.58315,0,0,1,1.58876-3.61238v0c.06678.09007.13356.23451.2019.33546.13356.18015.24538.39136.379.60413.06825.11182.11329.21277.17852.32459,1.38687,2.50506,2.797,6.48551,3.89348,12.31253v.06678c.1786.93959.33546,1.92422.49076,2.95234a.27709.27709,0,0,1,.0233.13511c1.0949,7.481.89455,22.4213.1786,37.23735-.31372,6.78835-.716,13.25368-1.07315,18.54179-.51562.292-1.02967.59327-1.52043.88369a182.67226,182.67226,0,0,1-43.4138,17.245c-27.91287,7.14556-61.1029,6.9887-97.40228-9.33846-4.74144-2.12456-9.50463-4.50693-14.33615-7.21233a81.30485,81.30485,0,0,1-20.55454-16.731,83.55345,83.55345,0,0,0,29.88057-30.92111c4.6964-8.36315,8.72345-15.69973,12.25662-21.62614,1.27505-2.12612,2.48332-4.083,3.62326-5.8379.24693-.35875.469-.68178.69265-1.01879.35876-.54668.73925-1.0716,1.05142-1.53131v0c1.23156,3.47727,3.19771,6.99026,5.19027,13.09527a109.63089,109.63089,0,0,1,4.00219,17.24345,403.69876,403.69876,0,0,1,4.80978,44.97772,53.46569,53.46569,0,0,1,11.40556-8.57591c.09008-.06833.22364-.12424.33546-.191a3.22954,3.22954,0,0,1,.40224-.18948,21.13287,21.13287,0,0,1,8.87875-2.61843c6.10657-.16617,10.24543,1.61206,12.86231,3.43378a13.47982,13.47982,0,0,1,3.66674,3.62481,15.721,15.721,0,0,1,2.46-2.84207,16.58957,16.58957,0,0,1,10.9148-4.73058c4.406-.10094,7.2465.806,10.042,3.09833a20.78089,20.78089,0,0,1,1.946,1.73319,13.05774,13.05774,0,0,1,11.85439-6.27429,13.89083,13.89083,0,0,1,4.67466,1.13061,10.3084,10.3084,0,0,1,2.30317,1.45365,25.49928,25.49928,0,0,1,3.39969,3.23189C1071.22825,1250.95428,1079.88344,1233.24025,1083.10438,1225.8695Zm111.53808-289.72041a167.03387,167.03387,0,0,1-6.33021,20.26412v.028a135.77078,135.77078,0,0,1-12.48026,24.9217c-.26868-6.41407-.3572-13.55963-.80448-20.94591-1.8124-30.29989-10.44577-45.21378-11.54067-46.98425l-5.83789-8.79644s-9.52793,8.28083-19.66,9.05269a12.04008,12.04008,0,0,1-1.36357.01709,17.03952,17.03952,0,0,1-7.672-2.67279,29.43088,29.43088,0,0,1-5.61426-4.30659,52.67005,52.67005,0,0,1-8.36314,5.28035,22.20626,22.20626,0,0,1-8.54485,2.63707c-7.87238.30284-18.67535-7.72174-18.67535-7.72174s-.17861.13977-.51406.3805c-2.30472,1.67263-12.05473,8.36-19.32453,7.51052a15.53023,15.53023,0,0,1-4.80823-1.54994,46.84572,46.84572,0,0,1-11.11513-8.14106s-9.57452,10.07149-17.69221,11.49719a19.47052,19.47052,0,0,1-8.09609-.61035c-8.0308-2.07486-15.92492-7.50275-16.57254-7.96246-.04659-.01553-.04659-.02795-.04659-.02795h0a.49255.49255,0,0,1-.02174.10716c-.29042,2.13544-5.14361,36.70154-13.95566,57.16135a190.3698,190.3698,0,0,1-12.1681,23.67461v-.0233a139.986,139.986,0,0,1-19.36794,25.53049c0-1.39773.02322-2.79547.045-4.19321.1786-20.64307.09008-39.5607-5.36732-63.93263-1.47694-6.56471-3.87019-14.39361-6.26335-21.55-5.85971-4.78027-11.02662.34633-17.64577,2.28764-.045.01553-.11337.03261-.15685.045-.1786.04349-.33546.09474-.51406.13978-.09008.00932-.1786.04348-.292.06057-.11027.028-.24531.05591-.3805.09007a2.69589,2.69589,0,0,1-.31216.06057c-.13356.02951-.24538.045-.3805.073-.11182.01708-.22363.03416-.33545.045-.11182.01553-.24538.0497-.3572.06057a2.50569,2.50569,0,0,0-.3572.03417c-.13512.01242-.24694.028-.35869.028a2.68009,2.68009,0,0,1-.3572.01709,3.02888,3.02888,0,0,1-.38056.01708h-.73925a2.82571,2.82571,0,0,0-.3805-.01708c-.13356-.01709-.26712-.03262-.40068-.045a2.19,2.19,0,0,1-.33539-.03417c-.15693-.01087-.31379-.045-.47064-.06057a2.04775,2.04775,0,0,1-.31372-.05591c-.15686-.03261-.33546-.06212-.51406-.10716a2.14912,2.14912,0,0,1-.26867-.06056c-.22364-.045-.44728-.10561-.67092-.16773a1.22151,1.22151,0,0,0-.13356-.045,15.87189,15.87189,0,0,1-2.59358-1.0452h-.0233q-.43785-.226-.87281-.469c-.02174-.01864-.045-.03572-.06678-.05125-.26861-.15065-.5591-.31993-.84952-.49853-.02329-.01553-.045-.04348-.06678-.06057-.292-.18481-.58239-.38049-.87281-.57618-.02174-.01708-.045-.028-.06678-.045-.29042-.21122-.60413-.44107-.91785-.68179,0,0-.02174,0-.02174-.01708a45.08736,45.08736,0,0,1-7.35832-7.49189,15.6852,15.6852,0,0,1-2.16961,2.533,19.23188,19.23188,0,0,1-12.86076,5.7649,30.14295,30.14295,0,0,1-22.14168-8.67842,45.45857,45.45857,0,0,1-7.29006-9.20334c17.846-.45349,40.74878-1.21448,62.01934-2.40877,6.12824-.337,12.123-.716,17.804-1.143,3.75681-.27333,7.38007-.57462,10.82472-.87592,2.23638-.21432,4.42773-.42553,6.48558-.6383,2.84045-.30129,5.52411-.60879,8.00743-.93959,20.97852-2.77839,49.42718-9.6444,78.32313-15.80688,28.78567-6.15627,57.61483-11.49564,79.7131-11.418,22.14175.0792,42.96341,3.94317,58.23916,7.77764,4.98838,1.26418,9.68478,2.62775,13.75531,3.91367-.37894,3.5689-.82777,7.43287-1.36357,11.53136A378.40645,378.40645,0,0,1,1194.64246,936.14909Z"/><path class="cls-5" d="M740.12394,673.6815s.58232,7.25116-16.03525,13.68232c-16.59583,6.442-23.70877,4.17148-23.70877,4.17148s9.326,9.77952,34.77887,6.09414a69.15246,69.15246,0,0,0,20.57784-6.88309c7.6037,19.07915,37.50757,31.01119,71.57049,27.31339,21.9616-2.38082,40.79536-10.75017,52.291-21.828a123.04713,123.04713,0,0,0,25.42954,6.87222c48.84635,7.554,57.23279-14.52717,58.23916-25.01022,1.43191-15.28817-7.84908-28.27162-7.84908-28.27162a8.47131,8.47131,0,0,1-.2019.92872c-.938,3.94163-5.636,19.43014-20.8667,21.86842-6.17335,1.00171-15.76806-2.89643-15.76806-2.89643l-55.24334-35.1252-2.90729-1.85123-33.83929-21.52209s-36.99351,10.83093-72.0628,19.98923c-35.06929,9.149-51.97884,4.82687-51.97884,4.82687s.18015.22829.56065.63674c2.14631,2.22552,11.02506,9.79661,36.32105,14.35945l6.79922,1.00016L737.038,654.3461c-37.28393,8.6722-75.90969-3.8236-75.90969-3.8236a133.342,133.342,0,0,0,36.45778,18.50142A110.54687,110.54687,0,0,0,740.12394,673.6815Zm82.57536-8.96262.49225,2.3482c1.85589,10.05907,1.29679,26.22316,1.29679,26.22316s4.8983-3.91367,11.71927-16.60671l2.12612-4.39356a173.45418,173.45418,0,0,0,22.09672,14.889c-3.95871,5.35645-12.97258,8.93466-29.61345,11.4801-18.71884,2.884-37.17212-8.17522-40.63844-10.38831a18.69662,18.69662,0,0,1-3.39968-8.68928,18.93258,18.93258,0,0,1,2.036-10.5079C793.28768,668.31418,803.12933,666.8714,822.6993,664.71888Z"/><polygon class="cls-4" points="695.148 1371.27 700.872 1371.27 700.872 1388.515 702.93 1388.515 702.93 1371.27 708.947 1371.27 708.947 1369.191 695.148 1369.191 695.148 1371.27"/><polygon class="cls-4" points="724.962 1369.191 719.995 1384.925 715.03 1369.191 711.72 1369.191 711.72 1388.515 713.778 1388.515 713.778 1372.109 718.967 1388.515 721.046 1388.515 726.213 1372.109 726.213 1388.515 728.293 1388.515 728.293 1369.191 724.962 1369.191"/></svg>